<svg width="55" height="50" viewBox="0 0 55 50" fill="none" xmlns="http://www.w3.org/2000/svg">
<rect x="3" width="50" height="50" rx="25" fill="#36CEA6"/>
<g filter="url(#filter0_d_541_131)">
<path d="M13.144 19.0688L8.5686 19.6927C8.55874 19.694 8.54823 19.696 8.53836 19.6973C8.53245 19.6979 8.52655 19.6992 8.51997 19.7006C8.51143 19.7025 8.5022 19.7038 8.49365 19.7058C8.49234 19.7058 8.49102 19.7058 8.4897 19.7065C8.48576 19.7071 8.48183 19.7084 8.47789 19.7091C8.47066 19.7104 8.46278 19.7124 8.45555 19.715C8.45226 19.7157 8.44895 19.7163 8.44566 19.7176C8.43909 19.7196 8.43185 19.7216 8.42528 19.7236C8.41608 19.7268 8.40624 19.7295 8.39703 19.7328C8.39243 19.7341 8.38783 19.7361 8.38323 19.7374C8.37863 19.7393 8.37403 19.7407 8.36943 19.7426C8.3668 19.7433 8.36482 19.7439 8.36285 19.7453C8.35825 19.7466 8.35297 19.7485 8.34837 19.7505C8.33457 19.7558 8.32077 19.7623 8.30696 19.7683C8.29907 19.7716 8.29184 19.7755 8.28395 19.7794C8.27869 19.7821 8.27277 19.7854 8.26751 19.788C8.25502 19.7946 8.24254 19.8018 8.23005 19.809C8.21033 19.8209 8.19193 19.8327 8.17353 19.8458C8.16827 19.8498 8.16367 19.8531 8.15841 19.857C8.15644 19.8583 8.15444 19.859 8.15247 19.861C8.1413 19.8688 8.13144 19.8774 8.12092 19.8859C8.11171 19.8925 8.10317 19.9004 8.09463 19.9076C8.08674 19.9149 8.07885 19.9214 8.07161 19.9287C8.0611 19.9385 8.0506 19.949 8.04073 19.9596C8.03548 19.9648 8.03022 19.9701 8.02562 19.9753C8.02036 19.9806 8.01574 19.9859 8.01114 19.9918C8.00588 19.997 8.00192 20.0023 7.99666 20.0082C7.9776 20.0306 7.96052 20.0536 7.94408 20.0779C7.93554 20.0897 7.92766 20.1022 7.92043 20.114C7.9132 20.1259 7.9053 20.139 7.89873 20.1515C7.8915 20.164 7.88492 20.1772 7.87835 20.1903C7.87177 20.2035 7.86587 20.2166 7.85995 20.2297C7.85732 20.2363 7.85401 20.2436 7.85138 20.2501C7.84875 20.2574 7.84615 20.2639 7.84352 20.2705C7.84089 20.2771 7.83825 20.2843 7.83562 20.2915C7.83036 20.3053 7.82642 20.3192 7.82182 20.3336C7.8113 20.3691 7.80276 20.4046 7.79685 20.4414C7.79422 20.4559 7.79222 20.471 7.79091 20.4855C7.79091 20.4934 7.78895 20.5006 7.78895 20.5078C7.78829 20.5131 7.78762 20.519 7.78696 20.5243C7.7863 20.5335 7.78564 20.5433 7.78564 20.5525C7.78564 20.5584 7.78564 20.5644 7.78564 20.5703C7.78564 20.5795 7.78564 20.5887 7.78564 20.5979C7.78564 20.6038 7.78564 20.6091 7.78564 20.6143C7.78564 20.6242 7.78565 20.634 7.78696 20.6439C7.78696 20.6505 7.78762 20.657 7.78828 20.6636C7.78828 20.6702 7.78961 20.6774 7.79027 20.684C7.79158 20.6939 7.79223 20.7031 7.79354 20.7129L9.31933 31.6124C9.32065 31.6216 9.32198 31.6315 9.32395 31.6407C9.32395 31.6426 9.32461 31.6453 9.32527 31.6479C9.32527 31.6492 9.32525 31.6505 9.32591 31.6525C9.32788 31.6643 9.3305 31.6762 9.33313 31.688C9.33708 31.7044 9.34103 31.7209 9.34498 31.7366C9.34695 31.7445 9.34959 31.7524 9.35156 31.7603C9.35353 31.7669 9.35549 31.7728 9.35747 31.7787C9.35944 31.7853 9.36142 31.7925 9.36405 31.7984C9.36536 31.8017 9.36666 31.805 9.36732 31.8083C9.36995 31.8155 9.37326 31.8234 9.37589 31.8306C9.37852 31.8379 9.38178 31.8451 9.38507 31.853C9.38836 31.8602 9.39164 31.8681 9.39492 31.8753C9.39821 31.8826 9.40152 31.8905 9.40481 31.8977C9.4081 31.9049 9.41202 31.9122 9.41531 31.9194C9.42122 31.9299 9.4265 31.9411 9.43242 31.9516C9.43899 31.9634 9.44489 31.9733 9.45081 31.9832C9.46724 32.0108 9.48567 32.0371 9.50474 32.0627C9.50934 32.0693 9.51458 32.0752 9.51918 32.0818C9.52444 32.0877 9.52904 32.0943 9.5343 32.1002C9.53956 32.1061 9.54416 32.112 9.54942 32.1179C9.55468 32.1238 9.56059 32.1298 9.56585 32.1357C9.58755 32.1593 9.61056 32.181 9.63422 32.2021C9.64408 32.2113 9.65394 32.2198 9.66446 32.2277C9.66512 32.2284 9.66711 32.2297 9.66777 32.2303L9.66972 32.2316C9.66972 32.2316 9.67106 32.2323 9.67171 32.233C9.68355 32.2428 9.69601 32.252 9.7085 32.2612C9.72033 32.2704 9.73349 32.279 9.74663 32.2875C9.75584 32.2941 9.76571 32.3 9.77623 32.3059C9.78609 32.3119 9.79593 32.3178 9.80579 32.323C9.81237 32.327 9.8196 32.3303 9.82617 32.3342C9.84655 32.3447 9.8676 32.3546 9.88864 32.3638C9.9031 32.3697 9.9169 32.3756 9.93136 32.3815C9.94583 32.3868 9.96028 32.3921 9.9754 32.3973C9.98526 32.4006 9.99446 32.4032 10.0043 32.4059C10.0056 32.4059 10.0076 32.4059 10.0096 32.4072C10.0155 32.4085 10.0208 32.4098 10.0267 32.4118C10.0398 32.4157 10.053 32.4183 10.0661 32.4216C10.0813 32.4249 10.097 32.4276 10.1121 32.4302C10.2055 32.446 10.3028 32.4479 10.4014 32.4341L14.9137 31.8188C14.9236 31.8175 14.9334 31.8155 14.9433 31.8142C14.9486 31.8142 14.9531 31.8129 14.9577 31.8116C14.961 31.8116 14.9637 31.8103 14.9669 31.8096C14.9781 31.8076 14.9899 31.805 15.0018 31.8024C15.0116 31.8004 15.0215 31.7978 15.0314 31.7951C15.0379 31.7938 15.0439 31.7919 15.0504 31.7899C15.0531 31.7899 15.0557 31.7886 15.059 31.7873C15.0649 31.7853 15.0715 31.784 15.0774 31.782C15.0807 31.7807 15.0833 31.78 15.0866 31.7787C15.0905 31.7774 15.0951 31.7761 15.0991 31.7748C15.1024 31.7735 15.1043 31.7728 15.107 31.7721C15.1195 31.7675 15.1326 31.7623 15.1445 31.7577C15.1504 31.7557 15.1563 31.7524 15.1615 31.7504C15.1628 31.7498 15.1635 31.7498 15.1642 31.7491C15.1714 31.7458 15.1786 31.7426 15.1852 31.7393C15.1865 31.7393 15.1878 31.738 15.1891 31.7373C15.2075 31.7281 15.2266 31.7189 15.2443 31.709C15.247 31.7077 15.249 31.7064 15.2516 31.7051C15.2529 31.7051 15.2549 31.7031 15.2562 31.7025C15.2608 31.6998 15.2654 31.6972 15.2694 31.6946C15.2753 31.6913 15.2818 31.6873 15.2877 31.684C15.2897 31.6827 15.2917 31.6808 15.2943 31.6794C15.2983 31.6768 15.3029 31.6742 15.3068 31.6716C15.3088 31.6702 15.3108 31.6689 15.3134 31.6676C15.314 31.667 15.3147 31.6663 15.3154 31.6656C15.3167 31.6656 15.3167 31.6643 15.3173 31.6637C15.32 31.6624 15.3226 31.6604 15.3259 31.6584C15.3298 31.6558 15.3331 31.6531 15.337 31.6505C15.3384 31.6505 15.3397 31.6492 15.3404 31.6479C15.341 31.6472 15.3417 31.6466 15.3423 31.6466C15.3423 31.6466 15.3436 31.6466 15.3443 31.6453C15.3541 31.638 15.3633 31.6308 15.3726 31.6236C15.3818 31.6163 15.391 31.6084 15.3995 31.6012C15.4087 31.594 15.4173 31.5861 15.4258 31.5776C15.4343 31.5697 15.4429 31.5618 15.4514 31.5532C15.4613 31.5427 15.4718 31.5322 15.4817 31.521C15.4902 31.5118 15.4981 31.5033 15.506 31.4941C15.5179 31.4803 15.529 31.4665 15.5395 31.452C15.5448 31.4448 15.5501 31.4375 15.5553 31.4303C15.5658 31.4158 15.5757 31.4007 15.5849 31.3856C15.5901 31.377 15.5961 31.3685 15.6007 31.36C15.6046 31.3534 15.6085 31.3468 15.6125 31.3396C15.6158 31.333 15.6197 31.3264 15.623 31.3199C15.6302 31.306 15.6368 31.2929 15.6434 31.2791C15.6467 31.2719 15.65 31.2653 15.6526 31.2581C15.6559 31.2502 15.6592 31.2429 15.6625 31.2351C15.6651 31.2285 15.6677 31.2226 15.6697 31.216C15.6736 31.2055 15.6776 31.1956 15.6809 31.1851C15.6828 31.1792 15.6848 31.1726 15.6868 31.1667C15.698 31.1325 15.7072 31.097 15.7137 31.0608C15.7164 31.0457 15.719 31.0313 15.721 31.0161C15.7223 31.0083 15.7229 30.9997 15.7243 30.9918C15.7256 30.9839 15.7262 30.976 15.7269 30.9688C15.7275 30.9609 15.7282 30.953 15.7288 30.9451C15.7302 30.9215 15.7308 30.8978 15.7308 30.8741C15.7308 30.8663 15.7308 30.8584 15.7308 30.8505C15.7308 30.8452 15.7308 30.8406 15.7308 30.8354C15.7308 30.8268 15.7302 30.8189 15.7295 30.8104C15.7295 30.8045 15.7282 30.7992 15.7282 30.7933C15.7282 30.788 15.7269 30.7828 15.7269 30.7775C15.7262 30.7696 15.7249 30.7611 15.7236 30.7538L14.1991 19.8669C14.1294 19.3548 13.6574 18.9958 13.1453 19.0662L13.144 19.0688ZM15.6716 30.7216C15.7085 30.9918 15.6276 31.2508 15.4679 31.4474C15.4067 31.523 15.3338 31.5887 15.2516 31.6426C15.2227 31.6617 15.1931 31.6788 15.1615 31.6946C15.0695 31.7412 14.9683 31.7741 14.8604 31.7886L10.4238 32.3934C10.4126 32.3947 10.4021 32.396 10.3915 32.3973C10.3863 32.3973 10.381 32.3986 10.3751 32.3986C9.87548 32.4414 9.42519 32.0844 9.35682 31.5822L7.83694 20.7287C7.77186 20.2508 8.10647 19.811 8.58439 19.7459L13.1559 19.1227C13.169 19.1207 13.1821 19.1194 13.1953 19.1181C13.6647 19.0754 14.09 19.4093 14.1538 19.8807L15.6716 30.721V30.7216Z" fill="white"/>
<path d="M13.2006 19.1174C13.1875 19.1187 13.1743 19.1201 13.1612 19.122C13.1586 19.122 13.1559 19.122 13.1533 19.122L8.58118 19.7452C8.10326 19.8103 7.76932 20.2501 7.8344 20.728L9.35428 31.5815C9.42331 32.0863 9.87821 32.444 10.3805 32.3973C10.3864 32.3973 10.3916 32.396 10.3969 32.396C10.4054 32.3953 10.4133 32.394 10.4212 32.3927L14.8579 31.7879C14.969 31.7728 15.0735 31.7386 15.1675 31.6899C15.1984 31.6735 15.228 31.6558 15.257 31.6367C15.3411 31.5802 15.416 31.5105 15.4772 31.4309C15.6284 31.237 15.704 30.9839 15.6685 30.7209L14.1506 19.8806C14.0868 19.4113 13.6667 19.078 13.2 19.1174H13.2006ZM9.51995 30.9819L8.16441 21.3308L13.9889 20.5367L15.3444 30.1878L9.51995 30.9819Z" fill="white"/>
<path d="M8.15906 21.3251L9.51524 30.9815L15.3522 30.1854L13.996 20.5291L8.15906 21.3251ZM15.3417 30.1769L9.52381 30.9703L8.17023 21.3337L13.9881 20.5402L15.3417 30.1769Z" fill="#36CEA6"/>
<path d="M10.0165 20.344C9.99349 20.3795 9.95406 20.4006 9.91198 20.3986C9.86991 20.3966 9.83177 20.3723 9.8127 20.3348C9.79298 20.2974 9.79496 20.2527 9.81797 20.2172C9.84097 20.1817 9.88041 20.1606 9.92248 20.1626C9.96455 20.1646 10.0027 20.1889 10.0218 20.2264C10.0415 20.2638 10.0395 20.3085 10.0165 20.344Z" fill="white"/>
<path d="M10.0255 20.2246C10.0052 20.1858 9.96571 20.1608 9.92166 20.1582C9.87827 20.1562 9.83686 20.1779 9.8132 20.2147C9.78953 20.2516 9.78754 20.2982 9.80726 20.337C9.82698 20.3758 9.8671 20.4008 9.91049 20.4034C9.91838 20.4034 9.92494 20.4034 9.93283 20.4021C9.96767 20.3975 10.0005 20.3771 10.0196 20.3469C10.0433 20.3101 10.0452 20.2634 10.0249 20.2246H10.0255ZM9.91181 20.3942C9.87105 20.3929 9.83489 20.3686 9.81583 20.3331C9.79742 20.2969 9.79937 20.2535 9.82106 20.2193C9.83881 20.1911 9.86908 20.1727 9.90195 20.1681C9.90853 20.1674 9.91507 20.1668 9.9223 20.1668C9.9624 20.1687 9.99923 20.1924 10.0176 20.2279C10.0367 20.264 10.0347 20.3074 10.013 20.3416C9.9907 20.3758 9.95255 20.3955 9.91245 20.3935L9.91181 20.3942Z" fill="white"/>
<path d="M11.5223 20.0692C11.5269 20.1008 11.5045 20.1304 11.4723 20.1343L10.4981 20.2671C10.4665 20.2717 10.4369 20.2494 10.433 20.2171C10.429 20.1849 10.4507 20.156 10.4829 20.1521L11.4572 20.0193C11.4887 20.0147 11.5183 20.037 11.5223 20.0692Z" fill="white"/>
<path d="M7.10246 19.3102C7.19318 19.3102 7.2668 19.2365 7.2668 19.1458V18.1643C7.2668 18.0736 7.19318 18 7.10246 18C7.01174 18 6.93811 18.0736 6.93811 18.1643V19.1458C6.93811 19.2365 7.01174 19.3102 7.10246 19.3102Z" fill="white"/>
<path d="M4.66435 20.9058H5.64584C5.73655 20.9058 5.81018 20.8322 5.81018 20.7415C5.81018 20.6508 5.73655 20.5771 5.64584 20.5771H4.66435C4.57363 20.5771 4.5 20.6508 4.5 20.7415C4.5 20.8322 4.57363 20.9058 4.66435 20.9058Z" fill="white"/>
<path d="M6.23021 19.8344C6.29397 19.7707 6.29397 19.6661 6.23021 19.6024L5.536 18.9082C5.47224 18.8444 5.36769 18.8444 5.30393 18.9082C5.24016 18.9719 5.24016 19.0765 5.30393 19.1402L5.99813 19.8344C6.0619 19.8982 6.16644 19.8982 6.23021 19.8344Z" fill="white"/>
<path fill-rule="evenodd" clip-rule="evenodd" d="M17.154 21.8621C16.5209 21.3586 15.623 21.1554 14.6257 21.2915C13.1196 21.4966 11.605 22.4209 10.6735 23.7041C9.06683 25.9149 9.14572 28.177 10.8733 29.4681C11.2835 29.7744 11.8476 29.9335 12.5023 29.9335C12.7206 29.9335 12.9494 29.9158 13.1854 29.8803C14.671 29.6548 16.0897 28.789 16.9798 27.5636C18.6627 25.247 18.7278 23.1158 17.1533 21.8628L17.154 21.8621ZM15.1148 27.5572H11.9094L11.179 29.0928C11.179 29.0928 11.179 29.0928 11.1792 29.093L11.1797 29.0935C11.6576 29.4505 12.382 29.5767 13.2195 29.4505C13.9486 29.34 14.6599 29.0573 15.2857 28.6452L15.1148 27.5572ZM14.9373 26.3312H12.599L14.2353 23.0107L14.9373 26.3312ZM16.7013 27.2738C18.1482 25.2319 18.1955 23.3683 16.8216 22.2744C16.4449 21.9746 15.9597 21.7971 15.4115 21.7498L16.7013 27.2738ZM11.0214 23.9496C11.5802 23.1798 12.3716 22.554 13.2381 22.1661L10.2575 27.9853C9.72369 26.8539 9.97351 25.3912 11.0214 23.9496Z" fill="white"/>
<path d="M21.8814 28.5475H20.495L20.7638 26.5858C20.8138 26.2197 20.7178 25.9935 20.4739 25.9074C20.4214 25.8976 20.378 25.893 20.3431 25.893H20.255C19.9947 25.893 19.8021 26.0455 19.6765 26.3505C19.6614 26.3873 19.6509 26.4314 19.6436 26.4833L19.359 28.5481H17.9581L18.6898 23.2601H20.0867L19.8113 25.2586C20.2005 24.8556 20.6061 24.6538 21.0281 24.6538H21.1313C21.7368 24.6538 22.1029 24.9588 22.2285 25.5682C22.2423 25.7523 22.2397 25.9199 22.2187 26.0698L21.8807 28.5481L21.8814 28.5475Z" fill="white"/>
<path d="M24.9936 24.5874C25.764 24.5874 26.3418 24.922 26.7284 25.5905C26.8697 25.9271 26.9204 26.2466 26.8796 26.549L26.852 26.7554C26.7803 27.2892 26.4747 27.7757 25.9336 28.2155C25.4623 28.56 24.9476 28.7315 24.3894 28.7315C23.6078 28.7315 23.0319 28.4068 22.6631 27.7579C22.5014 27.4312 22.4462 27.0769 22.4981 26.6956L22.506 26.6364C22.6079 25.889 23.0523 25.2941 23.8385 24.8516C24.2086 24.6748 24.5932 24.5861 24.9929 24.5861L24.9936 24.5874ZM24.091 26.5786L24.0653 26.7706C24.0042 27.2202 24.112 27.4759 24.3888 27.5377L24.5932 27.5522C24.8535 27.5522 25.0343 27.449 25.1362 27.2426C25.2191 27.0657 25.2749 26.8692 25.3038 26.6529C25.3834 26.0625 25.2217 25.768 24.8194 25.768H24.7753C24.5373 25.768 24.3605 25.8765 24.2454 26.0928C24.1672 26.2381 24.1153 26.3998 24.091 26.5793V26.5786Z" fill="white"/>
<path d="M29.9831 24.7276L30.3979 24.8163L30.2184 26.1732H29.9975C29.4282 26.1732 29.0338 26.3303 28.8155 26.6452C28.6867 26.8003 28.596 27.0751 28.5434 27.4709L28.4001 28.5477H26.9696L27.4725 24.7861H28.8708L28.7688 25.5533L29.0391 25.1845C29.3152 24.8794 29.6294 24.7269 29.9831 24.7269V24.7276Z" fill="white"/>
<path d="M33.4454 24.7276L33.8609 24.8163L33.6841 26.1732H33.4632C32.8939 26.1732 32.5001 26.3303 32.2818 26.6452C32.1537 26.8003 32.0636 27.0751 32.011 27.4709L31.8697 28.5477H30.4392L30.9355 24.7861H32.3338L32.2332 25.5533L32.5028 25.1845C32.7782 24.8794 33.0924 24.7269 33.4461 24.7269L33.4454 24.7276Z" fill="white"/>
<path d="M36.2899 24.5874C37.0604 24.5874 37.6402 24.922 38.0307 25.5905C38.174 25.9271 38.2266 26.2466 38.1878 26.549L38.1615 26.7554C38.0931 27.2892 37.7901 27.7757 37.2517 28.2155C36.7823 28.56 36.2682 28.7315 35.7101 28.7315C34.9285 28.7315 34.3513 28.4068 33.9785 27.7579C33.8148 27.4312 33.7577 27.0769 33.8076 26.6956L33.8155 26.6364C33.9128 25.889 34.3539 25.2941 35.1375 24.8516C35.5063 24.6748 35.8909 24.5861 36.2906 24.5861L36.2899 24.5874ZM35.3992 26.5786L35.3742 26.7706C35.3157 27.2202 35.4255 27.4759 35.7022 27.5377L35.9067 27.5522C36.167 27.5522 36.3478 27.449 36.4477 27.2426C36.5292 27.0657 36.5844 26.8692 36.612 26.6529C36.6883 26.0625 36.5246 25.768 36.1223 25.768H36.0782C35.8403 25.768 35.6641 25.8765 35.5504 26.0928C35.4728 26.2381 35.4222 26.3998 35.3985 26.5793L35.3992 26.5786Z" fill="white"/>
<path d="M42.5884 26.7037H44.0984C43.8861 27.4117 43.374 28.004 42.5621 28.4813C42.1493 28.6976 41.7081 28.806 41.2388 28.806C40.4052 28.806 39.711 28.457 39.1549 27.7588C38.8025 27.2572 38.6506 26.7064 38.6993 26.1068C38.7762 25.1602 39.2594 24.4029 40.1488 23.8355C40.63 23.5502 41.1467 23.4076 41.6983 23.4076C42.4339 23.4076 43.0827 23.6929 43.6461 24.2629C43.9761 24.6783 44.1648 25.1234 44.2115 25.598H42.7317C42.6502 25.291 42.4444 25.0373 42.1144 24.8387C41.9402 24.75 41.7522 24.7059 41.551 24.7059C41.0409 24.7059 40.6379 24.9564 40.3427 25.458C40.2402 25.6328 40.1791 25.8439 40.1593 26.0924L40.158 26.1068C40.1192 26.5861 40.2948 26.9746 40.6833 27.2724C40.8772 27.3999 41.083 27.4643 41.3019 27.4643H41.4195C41.9106 27.4643 42.3004 27.2112 42.589 26.705L42.5884 26.7037Z" fill="white"/>
<path d="M46.5143 24.8455C47.5471 24.8455 48.1637 25.3812 48.3642 26.4534C48.3977 26.6572 48.403 26.9097 48.3806 27.2094L48.3754 27.2798H45.6637L45.6624 27.2942C45.7274 27.5006 45.8346 27.642 45.9832 27.7182C46.1225 27.7945 46.2566 27.8326 46.3875 27.8326H46.4387C46.611 27.8326 46.7832 27.734 46.9555 27.5375H48.282L48.2807 27.5519C47.7259 28.4124 47.0738 28.8424 46.3237 28.8424C45.6255 28.8424 45.1056 28.6353 44.7644 28.2211C44.4232 27.807 44.2713 27.3554 44.3101 26.8663C44.3548 26.2983 44.5882 25.8223 45.0109 25.4371C45.4336 25.0525 45.9345 24.8553 46.5143 24.8455ZM45.7163 26.4087H47.0718V26.3975C47.0804 26.2943 47.0153 26.1826 46.8772 26.0623C46.7477 25.9933 46.6129 25.9591 46.4729 25.9591C46.0726 25.9591 45.8208 26.109 45.7163 26.4087Z" fill="white"/>
<path d="M48.6371 28.7312L49.0289 23.5687H50.5001L50.1123 28.7312H48.6371Z" fill="white"/>
</g>
<defs>
<filter id="filter0_d_541_131" x="0.5" y="14" width="54.0001" height="22.4434" filterUnits="userSpaceOnUse" color-interpolation-filters="sRGB">
<feFlood flood-opacity="0" result="BackgroundImageFix"/>
<feColorMatrix in="SourceAlpha" type="matrix" values="0 0 0 0 0 0 0 0 0 0 0 0 0 0 0 0 0 0 127 0" result="hardAlpha"/>
<feOffset/>
<feGaussianBlur stdDeviation="2"/>
<feComposite in2="hardAlpha" operator="out"/>
<feColorMatrix type="matrix" values="0 0 0 0 1 0 0 0 0 1 0 0 0 0 1 0 0 0 0.7 0"/>
<feBlend mode="normal" in2="BackgroundImageFix" result="effect1_dropShadow_541_131"/>
<feBlend mode="normal" in="SourceGraphic" in2="effect1_dropShadow_541_131" result="shape"/>
</filter>
</defs>
</svg>
