<svg width="50" height="50" viewBox="0 0 50 50" fill="none" xmlns="http://www.w3.org/2000/svg">
<rect width="50" height="50" rx="25" fill="#36CEA6"/>
<g clip-path="url(#clip0_541_127)">
<g filter="url(#filter0_d_541_127)">
<path fill-rule="evenodd" clip-rule="evenodd" d="M25 12.5C25.6903 12.5 26.25 13.0596 26.25 13.75V15.3491L32.5 17.4324L35.8547 16.3141C36.5096 16.0958 37.2175 16.4498 37.4358 17.1047C37.6541 17.7596 37.3002 18.4675 36.6453 18.6859L34.0811 19.5406L37.4157 29.5442C37.6156 30.0538 37.4617 30.6538 37.0029 30.999C34.3422 33.0004 30.6592 33.0004 27.9985 30.9989C27.5691 30.6759 27.3942 30.1145 27.5641 29.6047L30.9188 19.5406L26.25 17.9843V35H28.75C29.4403 35 30 35.5596 30 36.25C30 36.9404 29.4403 37.5 28.75 37.5H21.25C20.5596 37.5 20 36.9404 20 36.25C20 35.5596 20.5596 35 21.25 35H23.75V17.9843L19.0811 19.5406L22.4157 29.5443C22.6155 30.0538 22.4617 30.6539 22.0029 30.999C19.3422 33.0004 15.6592 33.0004 12.9985 30.9989C12.5691 30.6759 12.3942 30.1145 12.5641 29.6047L15.9188 19.5406L13.3547 18.6859C12.6998 18.4675 12.3458 17.7596 12.5641 17.1047C12.7824 16.4498 13.4903 16.0958 14.1453 16.3141L17.5 17.4324L23.75 15.3491V13.75C23.75 13.0596 24.3096 12.5 25 12.5ZM17.5 21L14.5 30C15.9128 30.714 19.087 30.7136 20.5 30L17.5 21ZM32.5 21L29.5 30.1047C30.9128 30.8187 34.087 30.7136 35.5 30L32.5 21Z" fill="white"/>
</g>
</g>
<defs>
<filter id="filter0_d_541_127" x="9.49963" y="9.5" width="31.002" height="31" filterUnits="userSpaceOnUse" color-interpolation-filters="sRGB">
<feFlood flood-opacity="0" result="BackgroundImageFix"/>
<feColorMatrix in="SourceAlpha" type="matrix" values="0 0 0 0 0 0 0 0 0 0 0 0 0 0 0 0 0 0 127 0" result="hardAlpha"/>
<feOffset/>
<feGaussianBlur stdDeviation="1.5"/>
<feComposite in2="hardAlpha" operator="out"/>
<feColorMatrix type="matrix" values="0 0 0 0 1 0 0 0 0 1 0 0 0 0 1 0 0 0 0.8 0"/>
<feBlend mode="normal" in2="BackgroundImageFix" result="effect1_dropShadow_541_127"/>
<feBlend mode="normal" in="SourceGraphic" in2="effect1_dropShadow_541_127" result="shape"/>
</filter>
<clipPath id="clip0_541_127">
<rect width="30" height="30" fill="white" transform="translate(10 10)"/>
</clipPath>
</defs>
</svg>
