<svg width="50" height="50" viewBox="0 0 50 50" fill="none" xmlns="http://www.w3.org/2000/svg">
<rect width="50" height="50" rx="25" fill="#36CEA6"/>
<g filter="url(#filter0_d_541_129)">
<path d="M18.8353 37.7248C18.8353 38.352 19.1035 38.6654 19.6329 38.6654C20.1623 38.6654 20.6917 38.4834 21.1444 38.1189C21.2978 38.3448 21.3746 38.5852 21.3746 38.8335C21.3746 39.2197 21.1901 39.5113 20.8223 39.7084C20.4464 39.9054 19.9709 40 19.38 40C17.8685 40 17.1248 39.2197 17.1248 37.7983C17.1248 36.9017 17.4006 36.1654 17.9458 35.5815C18.4904 34.9983 19.2576 34.7066 20.2549 34.7066C20.7076 34.7066 21.0988 34.7868 21.4285 34.9398C21.7581 35.0929 21.9192 35.3339 21.9192 35.6472C21.9192 35.9171 21.6814 36.3251 21.3974 36.5583C21.121 36.2154 20.6993 36.0407 20.1395 36.0407C19.1346 36.0407 18.8353 36.93 18.8353 37.7248Z" fill="white"/>
<path d="M24.3335 37.9182L24.2029 38.6401H26.4891L26.2438 39.9452H22.3237L23.2747 34.8271H27.1872L26.9494 36.1323H24.6708L24.556 36.7444H26.5887L26.512 37.1162C26.389 37.6995 26.0897 37.9182 25.4455 37.9182H24.3329H24.3335Z" fill="white"/>
<path d="M27.5733 39.9187L28.3633 35.6532C28.4324 35.3176 28.4476 35.0555 28.4095 34.8585C28.6321 34.8 28.9003 34.7711 29.2306 34.7711C29.9134 34.7711 30.1512 35.0627 30.0364 35.6532L29.4918 38.584H31.7089L31.456 39.9181H27.5739L27.5733 39.9187Z" fill="white"/>
<path d="M40.5389 14H8.51362C7.40727 14 6.51267 14.8508 6.51014 15.8998H42.5423C42.5398 14.8508 41.6446 14 40.5389 14Z" fill="white"/>
<path d="M8.50348 31.1208H40.5287C41.6319 31.1208 42.5297 30.27 42.5297 29.2203H6.5C6.50254 30.2694 7.39776 31.1208 8.50348 31.1208Z" fill="white"/>
<path d="M15.5252 22.57C15.5252 20.9938 14.1804 19.7152 12.5231 19.7152C10.8658 19.7152 9.52106 20.9938 9.52106 22.57C9.52106 24.1463 10.8658 25.4249 12.5231 25.4249C14.1804 25.4249 15.5252 24.1487 15.5252 22.57ZM39.5346 22.57C39.5346 20.9938 38.1898 19.7152 36.5325 19.7152C34.8752 19.7152 33.5273 20.9938 33.5273 22.57C33.5273 24.1463 34.872 25.4249 36.5325 25.4249C38.193 25.4249 39.5346 24.1487 39.5346 22.57ZM41.5355 22.57C41.5355 25.2001 39.2962 27.3301 36.5325 27.3301C33.7689 27.3301 31.527 25.2007 31.527 22.57C31.527 19.9393 33.767 17.8123 36.5325 17.8123C39.2981 17.8123 41.5355 19.9423 41.5355 22.57ZM17.5286 22.57C17.5286 25.2001 15.2861 27.3301 12.5231 27.3301C9.76009 27.3301 7.51949 25.2007 7.51949 22.57C7.51949 19.9393 9.75945 17.8123 12.5225 17.8123C15.2855 17.8123 17.528 19.9423 17.528 22.57M42.5468 28.2731V16.8525H35.6975C34.9557 16.8585 33.4284 16.9953 31.9074 18.6854L28.7373 22.6333L31.3279 25.7858C31.6684 26.1992 31.5898 26.7987 31.1548 27.1204C30.7205 27.4446 30.0897 27.3717 29.7486 26.9584L27.4655 24.1782L25.7416 26.2739L25.7264 26.2932L25.185 26.956C25.0449 27.1253 24.8597 27.2361 24.6562 27.2898C24.3639 27.3621 24.0387 27.3115 23.7794 27.1204C23.4972 26.9102 23.3673 26.586 23.4009 26.2691C23.4212 26.0979 23.4871 25.928 23.6095 25.7834L26.1943 22.6333L25.114 21.3059L26.3573 19.7296L27.4662 21.0884L30.181 17.8057C30.2564 17.7147 30.7871 16.9706 31.3552 16.8525H6.51014V28.2731H13.5959C14.3973 28.2267 15.7635 27.9459 17.1248 26.4335L20.2948 22.4857L17.7043 19.3331C17.3638 18.9198 17.4399 18.3203 17.8773 17.9985C18.3116 17.6743 18.94 17.7466 19.2804 18.1606L21.566 20.9407L23.2874 18.8445L23.3051 18.8228L23.8491 18.163C23.9861 17.9937 24.1744 17.8828 24.3779 17.8292C24.6702 17.7545 24.9954 17.8075 25.2522 17.9985C25.5318 18.2088 25.6643 18.533 25.6288 18.8493C25.611 19.021 25.5426 19.1903 25.4227 19.3349L24.459 20.5123L22.8347 22.4851L23.9328 23.8197L22.687 25.396L21.5654 24.03L18.848 27.3133C18.7732 27.4073 18.2083 28.193 17.6206 28.2731H42.5468Z" fill="white"/>
<path d="M43.6322 30.1259C43.6322 29.6343 44.0513 29.2336 44.5661 29.2336C45.0809 29.2336 45.5 29.6337 45.5 30.1259C45.5 30.6182 45.0809 31.0183 44.5661 31.0183C44.0513 31.0183 43.6322 30.6182 43.6322 30.1259ZM45.2724 30.1259C45.2724 29.7084 44.9567 29.4065 44.5661 29.4065C44.1755 29.4065 43.8598 29.7078 43.8598 30.1259C43.8598 30.5441 44.1755 30.8454 44.5661 30.8454C44.9567 30.8454 45.2724 30.5441 45.2724 30.1259ZM44.206 29.6168H44.5991C44.8527 29.6168 44.9896 29.7012 44.9896 29.9132C44.9896 30.0862 44.8863 30.1699 44.7126 30.185L44.9972 30.6273H44.7956L44.5211 30.1922H44.4019V30.6273H44.2053V29.6162L44.206 29.6168ZM44.5756 30.0494C44.6923 30.0494 44.7931 30.0344 44.7931 29.8988C44.7931 29.7801 44.679 29.7602 44.5782 29.7602H44.4019V30.0494H44.5756Z" fill="white"/>
</g>
<defs>
<filter id="filter0_d_541_129" x="2.5" y="10" width="47" height="34" filterUnits="userSpaceOnUse" color-interpolation-filters="sRGB">
<feFlood flood-opacity="0" result="BackgroundImageFix"/>
<feColorMatrix in="SourceAlpha" type="matrix" values="0 0 0 0 0 0 0 0 0 0 0 0 0 0 0 0 0 0 127 0" result="hardAlpha"/>
<feOffset/>
<feGaussianBlur stdDeviation="2"/>
<feComposite in2="hardAlpha" operator="out"/>
<feColorMatrix type="matrix" values="0 0 0 0 1 0 0 0 0 1 0 0 0 0 1 0 0 0 0.7 0"/>
<feBlend mode="normal" in2="BackgroundImageFix" result="effect1_dropShadow_541_129"/>
<feBlend mode="normal" in="SourceGraphic" in2="effect1_dropShadow_541_129" result="shape"/>
</filter>
</defs>
</svg>
