<svg width="367" height="97" viewBox="0 0 367 97" fill="none" xmlns="http://www.w3.org/2000/svg">
<g opacity="0.25">
<path d="M28.2423 44.96L21.7143 30.752C21.5436 30.4533 21.4583 30.048 21.4583 29.536C21.4583 28.9813 21.5009 28.3627 21.5863 27.68H21.0743L18.0663 44.96H5.90625L12.9463 4.96H24.4023L30.9303 19.168C31.0583 19.4667 31.1223 19.8933 31.1223 20.448C31.1223 20.96 31.0796 21.5573 30.9943 22.24H31.5063L34.5783 4.96H46.7383L39.6982 44.96H28.2423Z" fill="white"/>
<path d="M74.7878 29.856H62.6278L61.7957 34.72H76.7077L74.9157 44.96H47.8438L54.8838 4.96H81.6357L78.3078 15.2H65.1878L64.2918 20.576H76.4518L74.7878 29.856Z" fill="white"/>
<path d="M122.293 4.96H135.029L122.037 44.96H105.909V30.24H105.205L99.8932 44.96H85.1093V4.96H97.8453L96.6933 27.296H97.0772L105.397 4.96H115.061V27.296H115.445L122.293 4.96Z" fill="white"/>
<path d="M131.817 44.256L135.401 33.696C138.985 34.6773 142.27 35.168 145.257 35.168C148.243 35.168 150.654 35.04 152.489 34.784L153.001 31.584L147.689 31.072C143.635 30.688 140.755 29.7707 139.049 28.32C137.385 26.8693 136.553 24.8213 136.553 22.176C136.553 21.024 136.681 19.744 136.937 18.336C137.918 12.8747 139.689 9.12 142.249 7.072C144.851 5.024 148.862 4 154.281 4C159.699 4 164.478 4.53333 168.617 5.6L165.289 15.84C161.577 15.2 158.59 14.88 156.329 14.88C154.067 14.88 152.147 14.9867 150.569 15.2L150.057 18.336L154.345 18.784C158.697 19.2533 161.79 20.2987 163.625 21.92C165.459 23.4987 166.377 25.632 166.377 28.32C166.377 31.0507 165.779 33.8667 164.585 36.768C163.987 38.2613 163.326 39.52 162.601 40.544C161.918 41.5253 161.022 42.3787 159.913 43.104C158.846 43.7867 157.865 44.32 156.969 44.704C156.073 45.0453 154.942 45.3013 153.577 45.472C151.571 45.7707 149.118 45.92 146.217 45.92C140.926 45.92 136.126 45.3653 131.817 44.256Z" fill="white"/>
<path d="M194.101 44.96H169.781L176.821 4.96H188.981L183.733 34.72H195.893L194.101 44.96Z" fill="white"/>
<path d="M223.975 29.856H211.815L210.983 34.72H225.895L224.103 44.96H197.031L204.071 4.96H230.823L227.495 15.2H214.375L213.479 20.576H225.639L223.975 29.856Z" fill="white"/>
<path d="M263.033 15.2H254.201L249.017 44.96H236.857L242.041 15.2H233.273L235.129 4.96H264.889L263.033 15.2Z" fill="white"/>
<path d="M295.033 15.2H286.201L281.017 44.96H268.857L274.041 15.2H265.273L267.129 4.96H296.889L295.033 15.2Z" fill="white"/>
<path d="M321.913 29.856H309.753L308.921 34.72H323.833L322.041 44.96H294.969L302.009 4.96H328.761L325.433 15.2H312.313L311.417 20.576H323.577L321.913 29.856Z" fill="white"/>
<path d="M362.058 44.96H348.682L345.738 33.056H343.114L341.066 44.96H328.906L335.946 4.96H355.146C362.442 4.96 366.09 8.224 366.09 14.752C366.09 17.44 365.685 20 364.874 22.432C363.381 27.04 361.034 30.112 357.834 31.648L362.058 44.96ZM346.25 15.2L344.842 23.2H347.658C349.109 23.2 350.197 23.0507 350.922 22.752C351.69 22.4107 352.202 21.4933 352.458 20C352.757 18.464 352.906 17.5253 352.906 17.184C352.906 16.3307 352.565 15.7973 351.882 15.584C351.242 15.328 350.176 15.2 348.682 15.2H346.25Z" fill="white"/>
<path d="M131.212 95.96H98.4443L99.8522 87.96L119.116 66.584L118.988 66.2H106.252L106.956 55.96H137.996L136.588 63.96L117.452 85.336L117.516 85.72H133.004L131.212 95.96Z" fill="#36CEA6"/>
<path d="M152.067 55.96L152.899 70.04H153.347L159.235 55.96H172.675L156.547 85.08L154.691 95.96H142.531L144.387 85.08L138.627 55.96H152.067Z" fill="#36CEA6"/>
<path d="M192.351 95.96H168.031L175.071 55.96H187.231L181.983 85.72H194.143L192.351 95.96Z" fill="#36CEA6"/>
<path d="M213.585 55.96L208.273 85.976H212.625C214.119 85.976 215.185 85.784 215.825 85.4C216.465 84.9733 216.913 84.0347 217.169 82.584L221.905 55.96H234.065L230.097 78.424C229.457 82.0507 228.711 84.9733 227.857 87.192C227.047 89.4107 225.895 91.288 224.401 92.824C222.908 94.36 221.052 95.4267 218.833 96.024C216.657 96.6213 213.884 96.92 210.513 96.92C205.351 96.92 201.724 96.152 199.633 94.616C197.585 93.0373 196.561 90.3493 196.561 86.552C196.561 84.4613 196.86 81.752 197.457 78.424L201.425 55.96H213.585Z" fill="#36CEA6"/>
<path d="M233.004 95.256L236.588 84.696C240.172 85.6773 243.458 86.168 246.444 86.168C249.431 86.168 251.842 86.04 253.676 85.784L254.188 82.584L248.876 82.072C244.823 81.688 241.943 80.7707 240.236 79.32C238.572 77.8693 237.74 75.8213 237.74 73.176C237.74 72.024 237.868 70.744 238.124 69.336C239.106 63.8747 240.876 60.12 243.436 58.072C246.039 56.024 250.05 55 255.468 55C260.887 55 265.666 55.5333 269.804 56.6L266.476 66.84C262.764 66.2 259.778 65.88 257.516 65.88C255.255 65.88 253.335 65.9867 251.756 66.2L251.244 69.336L255.532 69.784C259.884 70.2533 262.978 71.2987 264.812 72.92C266.647 74.4987 267.564 76.632 267.564 79.32C267.564 82.0507 266.967 84.8667 265.772 87.768C265.175 89.2613 264.514 90.52 263.788 91.544C263.106 92.5253 262.21 93.3787 261.1 94.104C260.034 94.7867 259.052 95.32 258.156 95.704C257.26 96.0453 256.13 96.3013 254.764 96.472C252.759 96.7707 250.306 96.92 247.404 96.92C242.114 96.92 237.314 96.3653 233.004 95.256Z" fill="#36CEA6"/>
</g>
<path d="M237.088 80.696L233.504 91.256C237.814 92.3653 242.614 92.92 247.904 92.92C250.806 92.92 253.259 92.7707 255.264 92.472C256.63 92.3013 257.76 92.0453 258.656 91.704C259.552 91.32 260.534 90.7867 261.6 90.104C262.71 89.3787 263.606 88.5253 264.288 87.544C265.014 86.52 265.675 85.2613 266.272 83.768C267.467 80.8667 268.064 78.0507 268.064 75.32C268.064 74.8497 268.036 74.3963 267.98 73.96H239.534C239.869 74.4602 240.27 74.9135 240.736 75.32C242.443 76.7707 245.323 77.688 249.376 78.072L254.688 78.584L254.176 81.784C252.342 82.04 249.931 82.168 246.944 82.168C243.958 82.168 240.672 81.6773 237.088 80.696Z" fill="#36CEA6"/>
<path d="M230.679 73.96L230.597 74.424C229.957 78.0507 229.211 80.9733 228.357 83.192C227.547 85.4107 226.395 87.288 224.901 88.824C223.408 90.36 221.552 91.4267 219.333 92.024C217.157 92.6213 214.384 92.92 211.013 92.92C205.851 92.92 202.224 92.152 200.133 90.616C198.085 89.0373 197.061 86.3493 197.061 82.552C197.061 80.4613 197.36 77.752 197.957 74.424L198.039 73.96H210.192L208.773 81.976H213.125C214.619 81.976 215.685 81.784 216.325 81.4C216.965 80.9733 217.413 80.0347 217.669 78.584L218.492 73.96H230.679Z" fill="#36CEA6"/>
<path d="M238.381 70.96H267.006C266.574 70.1999 266.01 69.5199 265.312 68.92C263.478 67.2987 260.384 66.2533 256.032 65.784L251.744 65.336L252.256 62.2C253.835 61.9867 255.755 61.88 258.016 61.88C260.278 61.88 263.264 62.2 266.976 62.84L270.304 52.6C266.166 51.5333 261.387 51 255.968 51C250.55 51 246.539 52.024 243.936 54.072C241.376 56.12 239.606 59.8747 238.624 65.336C238.368 66.744 238.24 68.024 238.24 69.176C238.24 69.8044 238.287 70.399 238.381 70.96Z" fill="#36CEA6"/>
<path d="M231.209 70.96H219.026L222.405 51.96H234.565L231.209 70.96Z" fill="#36CEA6"/>
<path d="M210.723 70.96L214.085 51.96H201.925L198.569 70.96H210.723Z" fill="#36CEA6"/>
<path d="M184.381 70.96L187.731 51.96H175.571L172.227 70.96H184.381Z" fill="#36CEA6"/>
<path d="M171.699 73.96L168.531 91.96H192.851L194.643 81.72H182.483L183.852 73.96H171.699Z" fill="#36CEA6"/>
<path d="M160.99 73.96L157.047 81.08L155.191 91.96H143.031L144.887 81.08L143.478 73.96H160.99Z" fill="#36CEA6"/>
<path d="M162.652 70.96L173.175 51.96H159.735L153.847 66.04H153.399L152.567 51.96H139.127L142.885 70.96H162.652Z" fill="#36CEA6"/>
<path d="M127.241 70.96L137.088 59.96L138.496 51.96H107.456L106.752 62.2H119.488L119.616 62.584L112.068 70.96H127.241Z" fill="#36CEA6"/>
<path d="M109.364 73.96L100.352 83.96L98.9443 91.96H131.712L133.504 81.72H118.016L117.952 81.336L124.555 73.96H109.364Z" fill="#36CEA6"/>
<path d="M129.495 29.696L125.91 40.256C130.22 41.3653 135.02 41.92 140.311 41.92C143.212 41.92 145.665 41.7707 147.671 41.472C149.036 41.3013 150.167 41.0453 151.062 40.704C151.958 40.32 152.94 39.7867 154.007 39.104C155.116 38.3787 156.012 37.5253 156.695 36.544C157.42 35.52 158.081 34.2613 158.678 32.768C159.873 29.8667 160.471 27.0507 160.471 24.32C160.471 23.479 160.381 22.6923 160.201 21.96H131.384C131.797 22.8711 132.383 23.6578 133.143 24.32C134.849 25.7707 137.729 26.688 141.783 27.072L147.094 27.584L146.583 30.784C144.748 31.04 142.337 31.168 139.35 31.168C136.364 31.168 133.079 30.6773 129.495 29.696Z" fill="white"/>
<path d="M122.302 21.96L116.131 40.96H100.003V26.24H99.299L93.987 40.96H79.203V21.96H90.8559L90.787 23.296H91.171L91.6687 21.96H109.155V23.296H109.539L109.949 21.96H122.302Z" fill="white"/>
<path d="M130.672 18.96H158.73C158.432 18.59 158.094 18.2434 157.719 17.92C155.884 16.2987 152.791 15.2533 148.439 14.784L144.15 14.336L144.663 11.2C146.241 10.9867 148.161 10.88 150.423 10.88C152.684 10.88 155.671 11.2 159.383 11.84L162.71 1.6C158.572 0.533334 153.793 0 148.374 0C142.956 0 138.945 1.024 136.342 3.072C133.783 5.12 132.012 8.87467 131.031 14.336C130.775 15.744 130.646 17.024 130.646 18.176C130.646 18.4434 130.655 18.7047 130.672 18.96Z" fill="white"/>
<path d="M167.219 21.96L163.875 40.96H188.195L189.987 30.72H177.827L179.372 21.96H167.219Z" fill="white"/>
<path d="M179.901 18.96H167.747L170.915 0.960003H183.075L179.901 18.96Z" fill="white"/>
<path d="M194.469 21.96L191.125 40.96H218.197L219.989 30.72H205.077L205.909 25.856H218.069L218.768 21.96H194.469Z" fill="white"/>
<path d="M219.306 18.96H194.997L198.165 0.960003H224.917L221.589 11.2H208.469L207.573 16.576H219.733L219.306 18.96Z" fill="white"/>
<path d="M234.26 21.96L230.951 40.96H243.111L246.42 21.96H234.26Z" fill="white"/>
<path d="M246.943 18.96H234.783L236.135 11.2H227.367L229.223 0.960003H258.983L257.126 11.2H248.294L246.943 18.96Z" fill="white"/>
<path d="M266.26 21.96L262.951 40.96H275.111L278.42 21.96H266.26Z" fill="white"/>
<path d="M278.943 18.96H266.783L268.134 11.2H259.366L261.223 0.960003H290.983L289.126 11.2H280.294L278.943 18.96Z" fill="white"/>
<path d="M292.407 21.96L289.062 40.96H316.134L317.927 30.72H303.014L303.846 25.856H316.007L316.705 21.96H292.407Z" fill="white"/>
<path d="M317.243 18.96H292.935L296.103 0.960003H322.854L319.526 11.2H306.406L305.51 16.576H317.671L317.243 18.96Z" fill="white"/>
<path d="M326.344 21.96L323 40.96H335.16L337.208 29.056H339.832L342.776 40.96H356.152L351.928 27.648C354.227 26.5446 356.085 24.6486 357.503 21.96H326.344Z" fill="white"/>
<path d="M358.791 18.96C358.851 18.7863 358.91 18.6103 358.968 18.432C359.779 16 360.184 13.44 360.184 10.752C360.184 4.224 356.536 0.960003 349.24 0.960003H330.04L326.872 18.96H338.978L340.344 11.2H342.776C344.269 11.2 345.336 11.328 345.976 11.584C346.659 11.7973 347 12.3307 347 13.184C347 13.5253 346.851 14.464 346.552 16C346.296 17.4933 345.784 18.4107 345.016 18.752C344.822 18.832 344.601 18.9014 344.355 18.96H358.791Z" fill="white"/>
<path d="M123.277 18.96H110.868L116.387 0.960003H129.123L123.277 18.96Z" fill="white"/>
<path d="M109.155 18.96V0.960003H99.491L92.7861 18.96H109.155Z" fill="white"/>
<path d="M91.0106 18.96L91.939 0.960003H79.203V18.96H91.0106Z" fill="white"/>
<path d="M70.118 18.96L70.5455 16.576H58.3855L59.2815 11.2H72.4015L75.7295 0.960003H48.9775L45.8095 18.96H70.118Z" fill="white"/>
<path d="M45.2815 21.96L41.9375 40.96H69.0095L70.8015 30.72H55.8895L56.7215 25.856H68.8815L69.5801 21.96H45.2815Z" fill="white"/>
<path d="M37.136 21.96L33.792 40.96H22.336L15.808 26.752C15.6373 26.4533 15.552 26.048 15.552 25.536C15.552 24.9813 15.5947 24.3627 15.68 23.68H15.168L12.16 40.96H0L3.34401 21.96H37.136Z" fill="white"/>
<path d="M37.664 18.96L40.832 0.960003H28.672L25.6 18.24H25.088C25.1733 17.5573 25.216 16.96 25.216 16.448C25.216 15.8933 25.152 15.4667 25.024 15.168L18.496 0.960003H7.04L3.87201 18.96H37.664Z" fill="white"/>
</svg>
