<svg width="600" height="601" viewBox="0 0 600 601" fill="none" xmlns="http://www.w3.org/2000/svg">
<path d="M309.527 600.742H290.473C130.062 600.742 0 466.414 0 300.742C0 135.069 130.062 0.741699 290.473 0.741699H309.527C469.938 0.741699 600 135.069 600 300.742C600 466.414 469.938 600.742 309.527 600.742Z" fill="url(#paint0_radial_589_181)"/>
<g opacity="0.5" clip-path="url(#clip0_589_181)">
<path d="M305.907 524.353C293.664 524.353 282.257 524.046 270.891 522.588C254.654 520.505 241.284 516.287 230.011 509.692C220.267 503.992 211.737 496.246 203.487 488.754C194.914 480.968 186.051 472.919 175.837 467.192C152.547 454.133 124.797 454.237 103.221 455.789C101.734 455.896 100.237 456.009 98.7375 456.126C83.8408 457.27 68.4375 458.452 54.8908 452.321C45.3508 448.003 37.8408 440.594 29.7108 432.071C22.5275 424.542 14.3941 415.515 8.52748 405.65C2.08081 394.807 -0.665857 384.641 0.134143 374.57C1.54081 356.845 13.8641 342.415 27.4641 327.978L61.2508 292.109C66.9308 286.082 73.3675 279.247 76.0375 270.77C82.0775 251.618 67.2541 232.802 57.8808 223.288C55.1975 220.565 52.3408 217.848 49.5775 215.225C39.3375 205.494 28.7508 195.432 23.8841 182.139C18.7475 168.103 19.5775 152.404 26.4175 134.139C32.3941 118.187 41.8475 102.846 50.9875 88.0116C55.9275 79.9955 60.5941 72.4232 64.3575 65.2815C69.1708 56.1474 75.5475 48.3515 83.3108 42.1141C90.3275 36.4775 98.7175 31.9221 108.247 28.5748C123.674 23.1651 142.214 20.6755 166.597 20.7423C180.657 20.7823 193.207 21.2429 204.417 26.5057C215.001 31.4716 223.401 40.4889 230.811 48.4416L291.727 113.815C300.027 122.723 309.437 132.818 321.317 138.204C331.657 142.893 344.131 144.285 359.447 142.463C367.407 141.515 375.477 139.823 383.281 138.187C398.967 134.9 415.188 131.5 431.174 134.039C442.381 135.818 453.394 140.42 464.838 148.106C476.014 155.611 485.924 164.976 493.308 172.294C505.214 184.095 516.261 197.194 516.481 212.986C516.624 223.355 511.934 233.313 507.394 242.941C501.651 255.129 496.227 266.639 499.934 278.747C502.457 286.986 508.921 293.377 514.627 299.017L565.457 349.263C574.157 357.86 583.114 367.221 589.697 377.396C597.227 389.033 600.571 400.036 599.921 411.029C598.721 431.273 583.724 449.969 555.348 466.595C544.298 473.069 532.321 478.943 519.611 478.085C507.351 477.261 496.241 470.256 485.498 463.484C472.107 455.045 459.461 447.072 445.021 450.362C436.851 452.225 430.031 457.671 425.001 462.21C418.191 468.354 411.837 475.392 405.697 482.2C393.147 496.106 380.171 510.487 362.767 517.712C347.491 524.056 330.054 524.189 314.671 524.31C311.697 524.333 308.777 524.35 305.904 524.35L305.907 524.353ZM120.947 454.581C128.084 454.581 134.591 454.968 140.787 455.749C154.424 457.467 165.974 461.062 176.094 466.738C186.357 472.492 195.244 480.565 203.837 488.371C212.067 495.846 220.577 503.572 230.274 509.245C255.924 524.25 288.497 523.996 314.671 523.796C330.007 523.679 347.387 523.542 362.571 517.238C379.864 510.056 392.801 495.723 405.314 481.856C411.464 475.038 417.824 467.99 424.658 461.829C429.734 457.25 436.624 451.751 444.911 449.862C459.561 446.521 472.294 454.551 485.777 463.051C496.467 469.789 507.521 476.757 519.651 477.574C532.224 478.422 544.114 472.585 555.091 466.154C583.311 449.621 598.221 431.07 599.408 411.006C600.824 387.078 582.441 366.784 565.098 349.64L514.267 299.394C508.521 293.714 502.004 287.273 499.444 278.907C495.677 266.609 501.144 255.009 506.931 242.727C511.444 233.149 516.111 223.248 515.967 212.999C515.751 197.394 504.774 184.395 492.948 172.671C476.144 156.015 455.657 138.461 431.097 134.56C415.201 132.034 399.031 135.424 383.391 138.705C375.577 140.343 367.497 142.035 359.514 142.986C344.097 144.822 331.534 143.414 321.107 138.685C309.134 133.255 299.687 123.12 291.354 114.176L230.437 48.802C223.057 40.8827 214.694 31.9054 204.201 26.983C193.084 21.7668 180.594 21.3096 166.597 21.2696C166.237 21.2696 165.874 21.2696 165.514 21.2696C129.251 21.2696 85.3975 26.4957 64.8241 65.5318C61.0541 72.6869 56.3841 80.2658 51.4375 88.2919C33.3975 117.566 12.9541 150.746 24.3775 181.966C29.2008 195.145 39.7441 205.163 49.9408 214.855C52.7075 217.481 55.5641 220.201 58.2575 222.931C65.3641 230.143 70.8608 237.862 74.1575 245.254C78.2308 254.391 79.0308 263.031 76.5408 270.934C73.8341 279.524 67.3541 286.402 61.6375 292.469L27.8508 328.338C14.3175 342.705 2.05414 357.059 0.660809 374.616C-1.02919 395.915 13.8075 414.65 30.0941 431.72C38.1875 440.207 45.6575 447.579 55.1141 451.857C68.5408 457.935 83.8775 456.757 98.7075 455.615C100.207 455.502 101.704 455.385 103.191 455.278C109.581 454.818 115.454 454.587 120.951 454.587L120.947 454.581Z" fill="#1B397F"/>
<path d="M309.973 529.495C297.983 529.495 286.81 529.195 275.68 527.766C259.78 525.727 246.683 521.596 235.643 515.138C226.1 509.555 217.747 501.969 209.667 494.631C201.27 487.005 192.59 479.122 182.59 473.512C159.783 460.724 132.603 460.827 111.473 462.346C110.017 462.449 108.553 462.563 107.083 462.676C92.4933 463.798 77.4066 464.956 64.14 458.949C54.7966 454.72 47.4433 447.465 39.4766 439.115C32.4433 431.74 24.4766 422.899 18.73 413.238C12.4166 402.619 9.72664 392.66 10.51 382.795C11.8866 365.435 23.9566 351.302 37.2766 337.162L70.3666 302.033C75.9266 296.13 82.23 289.439 84.8466 281.139C90.76 262.383 76.2433 243.958 67.0666 234.641C64.4366 231.971 61.64 229.314 58.9366 226.745C48.91 217.213 38.54 207.358 33.7733 194.34C28.7433 180.594 29.5533 165.215 36.2566 147.328C42.11 131.703 51.3666 116.682 60.32 102.151C65.1566 94.2984 69.7266 86.883 73.4133 79.8915C78.13 70.9442 84.3733 63.3086 91.9766 57.2014C98.85 51.6782 107.067 47.2196 116.4 43.9424C131.503 38.6395 149.653 36.2099 173.543 36.27C187.313 36.3101 199.603 36.7606 210.587 41.9133C220.95 46.7791 229.18 55.6061 236.437 63.3987L296.097 127.424C304.227 136.148 313.44 146.036 325.073 151.309C335.197 155.901 347.413 157.263 362.413 155.477C370.21 154.55 378.113 152.894 385.753 151.292C401.117 148.072 417 144.741 432.66 147.231C443.637 148.973 454.42 153.482 465.63 161.007C476.577 168.359 486.283 177.53 493.513 184.698C505.173 196.259 515.993 209.087 516.21 224.552C516.35 234.707 511.757 244.462 507.31 253.893C501.687 265.827 496.373 277.101 500.003 288.955C502.473 297.024 508.807 303.282 514.39 308.805L564.173 358.013C572.693 366.433 581.463 375.6 587.913 385.569C595.29 396.969 598.563 407.741 597.927 418.511C596.753 438.341 582.063 456.652 554.27 472.935C543.447 479.276 531.713 485.023 519.267 484.188C507.257 483.381 496.377 476.523 485.853 469.888C472.74 461.622 460.36 453.816 446.217 457.04C438.217 458.862 431.537 464.198 426.613 468.64C419.943 474.657 413.723 481.552 407.707 488.216C395.417 501.836 382.707 515.922 365.663 522.997C350.7 529.211 333.623 529.342 318.557 529.458C315.643 529.482 312.783 529.498 309.97 529.498L309.973 529.495ZM128.83 461.151C135.82 461.151 142.193 461.532 148.26 462.296C161.617 463.978 172.927 467.499 182.84 473.059C192.89 478.695 201.597 486.598 210.013 494.243C218.073 501.562 226.407 509.131 235.903 514.688C261.023 529.382 292.923 529.135 318.557 528.938C333.577 528.821 350.597 528.691 365.467 522.517C382.403 515.485 395.073 501.445 407.323 487.866C413.347 481.191 419.577 474.287 426.267 468.249C431.24 463.764 437.987 458.378 446.103 456.529C460.453 453.259 472.927 461.121 486.13 469.444C496.597 476.042 507.423 482.867 519.3 483.668C531.613 484.499 543.257 478.782 554.007 472.485C581.64 456.295 596.243 438.124 597.407 418.477C598.793 395.047 580.79 375.17 563.807 358.38L514.023 309.172C508.393 303.609 502.013 297.301 499.503 289.105C495.813 277.061 501.17 265.697 506.837 253.67C511.257 244.292 515.827 234.594 515.687 224.559C515.473 209.277 504.727 196.549 493.143 185.065C476.687 168.753 456.623 151.563 432.573 147.741C417.007 145.269 401.17 148.589 385.853 151.8C378.2 153.405 370.287 155.063 362.467 155.995C358.21 156.502 354.173 156.755 350.347 156.755C340.597 156.755 332.187 155.107 324.853 151.783C313.127 146.467 303.873 136.538 295.713 127.778L236.053 63.7524C228.827 55.9966 220.637 47.2062 210.36 42.3839C199.477 37.2745 187.243 36.8273 173.537 36.7873C173.187 36.7873 172.827 36.7873 172.477 36.7873C136.963 36.7873 94.0166 41.9033 73.87 80.1351C70.1766 87.1433 65.6033 94.5654 60.76 102.425C43.0933 131.095 23.07 163.59 34.26 194.16C38.9833 207.065 49.3066 216.876 59.2933 226.368C62 228.941 64.8033 231.604 67.4366 234.277C74.3966 241.342 79.7833 248.901 83.01 256.139C87 265.09 87.7833 273.553 85.3433 281.292C82.69 289.706 76.3433 296.444 70.7433 302.387L37.6533 337.515C24.4 351.585 12.39 365.638 11.0266 382.832C9.3733 403.69 23.9033 422.035 39.85 438.755C47.7766 447.065 55.0933 454.283 64.3533 458.475C77.5033 464.425 92.52 463.27 107.047 462.156C108.517 462.042 109.98 461.929 111.44 461.825C117.697 461.375 123.45 461.151 128.837 461.151H128.83Z" fill="#1B397F"/>
<path d="M314.04 534.641C302.303 534.641 291.363 534.347 280.47 532.949C264.903 530.95 252.083 526.909 241.273 520.585C231.93 515.118 223.753 507.693 215.843 500.507C207.623 493.042 199.127 485.326 189.337 479.836C167.01 467.318 140.407 467.418 119.723 468.907C118.297 469.01 116.863 469.12 115.427 469.231C101.143 470.329 86.3766 471.463 73.3833 465.583C64.2366 461.441 57.0366 454.34 49.2366 446.167C42.3499 438.948 34.5533 430.291 28.9266 420.834C22.7433 410.435 20.1133 400.686 20.8766 391.028C22.2266 374.032 34.0433 360.195 47.0833 346.352L79.4766 311.965C84.9199 306.185 91.0899 299.637 93.6499 291.514C99.4366 273.159 85.2299 255.121 76.2433 246.004C73.6699 243.391 70.9299 240.791 68.2833 238.275C58.4666 228.944 48.3133 219.296 43.6499 206.551C38.7233 193.092 39.5199 178.037 46.0799 160.527C51.8099 145.232 60.8733 130.524 69.6366 116.301C74.3733 108.615 78.8466 101.357 82.4533 94.512C87.0699 85.7516 93.1833 78.2795 100.627 72.2991C107.353 66.8927 115.4 62.5243 124.54 59.3171C139.327 54.1277 157.103 51.7415 180.48 51.8049C193.96 51.8417 205.993 52.2855 216.743 57.3315C226.89 62.0937 234.947 70.7373 242.05 78.3629L300.453 141.037C308.41 149.577 317.43 159.255 328.817 164.418C338.727 168.91 350.683 170.245 365.367 168.499C372.997 167.592 380.733 165.97 388.213 164.401C403.253 161.247 418.803 157.99 434.133 160.423C444.88 162.128 455.437 166.54 466.41 173.909C477.127 181.104 486.627 190.085 493.707 197.103C505.123 208.42 515.713 220.978 515.927 236.122C516.063 246.064 511.567 255.612 507.213 264.846C501.707 276.53 496.507 287.563 500.06 299.167C502.48 307.066 508.677 313.19 514.143 318.596L562.877 366.77C571.217 375.013 579.803 383.987 586.12 393.745C593.34 404.905 596.547 415.454 595.923 425.996C594.773 445.409 580.393 463.337 553.183 479.276C542.587 485.483 531.103 491.113 518.913 490.292C507.157 489.501 496.503 482.787 486.203 476.292C473.37 468.203 461.247 460.56 447.407 463.714C439.577 465.5 433.04 470.719 428.217 475.071C421.687 480.961 415.597 487.709 409.71 494.237C397.677 507.569 385.237 521.359 368.55 528.287C353.9 534.367 337.183 534.498 322.437 534.611C319.583 534.634 316.787 534.648 314.03 534.648L314.04 534.641ZM136.713 467.725C143.557 467.725 149.793 468.099 155.733 468.847C168.81 470.495 179.883 473.943 189.587 479.383C199.427 484.899 207.947 492.638 216.187 500.124C224.077 507.289 232.233 514.698 241.53 520.137C266.12 534.521 297.347 534.281 322.437 534.084C337.137 533.97 353.8 533.84 368.357 527.796C384.933 520.915 397.337 507.169 409.33 493.88C415.227 487.345 421.327 480.587 427.873 474.677C432.74 470.285 439.347 465.012 447.293 463.2C461.343 459.996 473.553 467.695 486.483 475.845C496.73 482.306 507.327 488.984 518.953 489.765C531.003 490.576 542.4 484.983 552.927 478.819C579.977 462.97 594.27 445.186 595.41 425.956C596.77 403.019 579.143 383.566 562.52 367.13L513.787 318.957C508.277 313.51 502.03 307.333 499.573 299.31C495.963 287.516 501.203 276.393 506.753 264.616C511.08 255.435 515.553 245.944 515.417 236.119C515.207 221.165 504.69 208.7 493.35 197.463C477.243 181.495 457.6 164.668 434.06 160.927C418.823 158.507 403.32 161.758 388.327 164.898C380.837 166.47 373.087 168.092 365.433 169.003C350.65 170.762 338.607 169.414 328.607 164.878C317.123 159.672 308.067 149.954 300.077 141.377L241.673 78.7033C234.6 71.111 226.58 62.5076 216.523 57.7853C205.87 52.7861 193.897 52.3456 180.477 52.3089C145.507 52.2088 102.83 56.9443 82.9133 94.7389C79.2966 101.6 74.8199 108.866 70.0799 116.558C52.7866 144.621 33.1866 176.432 44.1399 206.357C48.7633 218.989 58.8699 228.593 68.6433 237.884C71.2933 240.404 74.0366 243.01 76.6166 245.627C83.4299 252.542 88.7033 259.944 91.8633 267.032C95.7699 275.796 96.5366 284.082 94.1466 291.661C91.5499 299.898 85.3366 306.495 79.8533 312.312L47.4599 346.699C34.4866 360.472 22.7299 374.229 21.3933 391.058C19.7733 411.472 33.9966 429.43 49.6099 445.796C57.3699 453.929 64.5299 460.998 73.5933 465.099C86.4633 470.923 101.163 469.795 115.383 468.703C116.823 468.593 118.257 468.483 119.683 468.38C125.81 467.939 131.44 467.719 136.71 467.719L136.713 467.725Z" fill="#1B397F"/>
<path d="M318.103 539.784C306.62 539.784 295.917 539.497 285.257 538.129C270.023 536.173 257.48 532.215 246.903 526.031C237.76 520.685 229.757 513.416 222.02 506.388C213.98 499.086 205.663 491.534 196.087 486.164C174.243 473.916 148.213 474.013 127.973 475.468C126.577 475.568 125.177 475.675 123.77 475.785C109.793 476.86 95.3433 477.968 82.63 472.214C73.6766 468.163 66.6333 461.211 59.0033 453.212C43.6466 437.113 29.6533 419.432 31.2533 399.255C32.5733 382.622 44.1366 369.083 56.8966 355.537L88.5933 321.89C93.92 316.237 99.9566 309.826 102.463 301.88C108.127 283.922 94.2233 266.275 85.4333 257.354C82.9133 254.798 80.2366 252.251 77.6433 249.788C68.0366 240.658 58.1033 231.22 53.5366 218.745C48.7166 205.576 49.4933 190.842 55.9133 173.709C61.52 158.741 70.3866 144.351 78.9633 130.434C83.5966 122.915 87.9733 115.81 91.5033 109.113C96.02 100.539 102.003 93.2271 109.287 87.3769C115.87 82.0873 123.743 77.8123 132.687 74.6753C147.153 69.5959 164.543 67.2565 187.423 67.3266C200.613 67.3633 212.39 67.7972 222.91 72.733C232.84 77.3951 240.72 85.8518 247.677 93.3139L304.823 154.64C312.61 162.996 321.433 172.464 332.573 177.517C342.27 181.912 353.967 183.22 368.333 181.508C375.8 180.62 383.37 179.032 390.69 177.5C405.407 174.416 420.623 171.226 435.627 173.609C446.143 175.281 456.473 179.596 467.213 186.808C477.7 193.849 486.997 202.636 493.923 209.501C505.093 220.574 515.46 232.865 515.667 247.683C515.803 257.414 511.4 266.755 507.143 275.792C501.757 287.223 496.67 298.019 500.147 309.369C502.513 317.095 508.577 323.088 513.923 328.374L561.607 375.51C569.767 383.576 578.17 392.357 584.35 401.905C591.417 412.824 594.553 423.15 593.943 433.465C592.817 452.464 578.747 470.005 552.12 485.603C542.433 491.28 531.983 496.463 520.92 496.463C520.143 496.463 519.367 496.436 518.583 496.386C507.077 495.612 496.653 489.041 486.573 482.687C474.017 474.77 462.157 467.295 448.613 470.379C440.953 472.124 434.557 477.233 429.84 481.488C423.45 487.252 417.493 493.856 411.73 500.241C399.957 513.289 387.783 526.779 371.453 533.56C357.117 539.51 340.76 539.637 326.33 539.75C323.537 539.77 320.797 539.784 318.103 539.784ZM144.597 474.3C151.293 474.3 157.397 474.664 163.21 475.398C176.003 477.01 186.84 480.384 196.337 485.707C205.967 491.106 214.303 498.679 222.367 506.001C230.087 513.012 238.067 520.261 247.163 525.58C271.223 539.654 301.777 539.417 326.327 539.227C340.71 539.116 357.013 538.99 371.257 533.076C387.477 526.341 399.61 512.895 411.347 499.89C417.117 493.496 423.083 486.881 429.493 481.101C434.257 476.803 440.72 471.643 448.5 469.871C462.25 466.738 474.2 474.27 486.85 482.246C496.877 488.567 507.243 495.101 518.617 495.865C530.407 496.66 541.557 491.187 551.853 485.153C578.32 469.648 592.303 452.247 593.42 433.432C594.75 410.992 577.507 391.956 561.24 375.877L513.557 328.742C508.163 323.412 502.05 317.368 499.647 309.516C496.113 297.972 501.24 287.089 506.673 275.566C510.907 266.585 515.283 257.297 515.15 247.686C514.947 233.055 504.653 220.861 493.56 209.865C477.8 194.24 458.583 177.777 435.55 174.116C420.64 171.746 405.473 174.927 390.803 178.004C383.473 179.539 375.893 181.131 368.403 182.022C353.94 183.744 342.15 182.422 332.367 177.987C321.13 172.891 312.267 163.383 304.45 154.993L247.303 93.6677C240.38 86.2389 232.537 77.8223 222.697 73.2035C212.273 68.3111 200.557 67.8839 187.43 67.8439C153.233 67.7471 111.46 72.3792 91.97 109.356C88.4333 116.071 84.05 123.179 79.4133 130.708C62.4933 158.167 43.3166 189.29 54.03 218.568C58.5533 230.926 68.4433 240.324 78.0066 249.415C80.6 251.881 83.2833 254.427 85.8066 256.99C92.4733 263.758 97.6333 271 100.727 277.935C104.55 286.512 105.3 294.618 102.963 302.037C100.42 310.096 94.3433 316.551 88.9766 322.247L57.28 355.894C44.5866 369.37 33.0833 382.829 31.7766 399.295C30.1933 419.268 44.11 436.839 59.3833 452.851C66.9766 460.811 73.9833 467.726 82.85 471.737C95.4433 477.437 109.827 476.329 123.737 475.261C125.143 475.154 126.547 475.044 127.943 474.944C133.937 474.514 139.447 474.297 144.607 474.297L144.597 474.3Z" fill="#1B397F"/>
<path d="M322.173 544.93C310.943 544.93 300.477 544.646 290.05 543.311C275.153 541.399 262.88 537.528 252.537 531.477C243.593 526.248 235.767 519.14 228.2 512.265C220.337 505.123 212.203 497.738 202.837 492.485C181.473 480.507 156.017 480.604 136.227 482.026C134.86 482.123 133.49 482.229 132.113 482.336C118.443 483.387 104.31 484.472 91.8765 478.845C83.1199 474.884 76.2299 468.086 68.7665 460.26C53.7465 444.515 40.0599 427.221 41.6265 407.488C42.9165 391.219 54.2265 377.976 66.7065 364.731L97.7032 331.822C102.913 326.292 108.817 320.025 111.267 312.256C116.803 294.695 103.21 277.438 94.6132 268.714C92.1499 266.215 89.5299 263.725 86.9965 261.315C77.5999 252.385 67.8865 243.154 63.4199 230.953C58.7065 218.071 59.4665 203.661 65.7465 186.901C71.2299 172.264 79.9032 158.187 88.2899 144.578C92.8232 137.222 97.1032 130.278 100.553 123.727C104.973 115.343 110.823 108.188 117.947 102.465C124.387 97.292 132.087 93.1104 140.833 90.0401C154.983 85.0743 171.987 82.7849 194.37 82.8516C207.27 82.8883 218.787 83.3122 229.077 88.1412C238.79 92.6999 246.497 100.973 253.3 108.272L309.19 168.249C316.803 176.419 325.433 185.68 336.33 190.622C345.81 194.92 357.25 196.199 371.3 194.527C378.603 193.659 386.007 192.107 393.163 190.605C407.557 187.588 422.44 184.468 437.113 186.801C447.4 188.436 457.503 192.658 468.007 199.709C478.263 206.598 487.353 215.188 494.13 221.906C505.057 232.738 515.193 244.759 515.397 259.253C515.53 268.771 511.223 277.908 507.06 286.745C501.793 297.922 496.817 308.481 500.217 319.578C502.53 327.133 508.46 332.993 513.69 338.163L560.323 384.26C568.307 392.15 576.523 400.74 582.567 410.078C589.477 420.76 592.547 430.855 591.95 440.947C590.85 459.529 577.087 476.686 551.047 491.944C540.907 497.884 529.917 503.274 518.247 502.49C506.993 501.732 496.797 495.305 486.94 489.091C474.66 481.348 463.063 474.036 449.82 477.057C442.33 478.765 436.073 483.758 431.463 487.919C425.217 493.556 419.39 500.014 413.753 506.258C402.24 519.019 390.33 532.215 374.36 538.843C360.34 544.663 344.34 544.786 330.227 544.897C327.497 544.917 324.817 544.933 322.18 544.933L322.173 544.93ZM152.483 480.874C159.03 480.874 165.003 481.231 170.687 481.946C183.2 483.524 193.8 486.821 203.087 492.031C212.503 497.31 220.657 504.716 228.543 511.878C236.093 518.732 243.9 525.824 252.793 531.027C276.32 544.79 306.203 544.56 330.213 544.373C344.28 544.262 360.223 544.142 374.153 538.359C390.017 531.774 401.883 518.622 413.36 505.904C419.003 499.65 424.84 493.182 431.107 487.526C435.767 483.321 442.09 478.275 449.697 476.539C463.147 473.476 474.833 480.841 487.207 488.64C497.01 494.821 507.15 501.212 518.273 501.959C529.8 502.737 540.707 497.384 550.777 491.484C576.66 476.319 590.337 459.302 591.427 440.904C592.727 418.961 575.863 400.346 559.953 384.618L513.317 338.52C508.043 333.307 502.063 327.397 499.71 319.714C496.253 308.424 501.27 297.778 506.58 286.508C510.72 277.725 515 268.641 514.87 259.243C514.67 244.936 504.607 233.012 493.757 222.259C478.343 206.981 459.55 190.876 437.023 187.298C422.443 184.982 407.61 188.092 393.263 191.099C386.093 192.601 378.68 194.156 371.353 195.027C357.207 196.709 345.677 195.418 336.107 191.079C325.117 186.097 316.45 176.796 308.803 168.589L252.913 108.612C246.143 101.347 238.473 93.1137 228.85 88.5984C218.657 83.8128 207.2 83.3956 194.36 83.3589C160.907 83.2588 120.063 87.7941 101.007 123.957C97.5465 130.521 93.2599 137.476 88.7232 144.838C72.1765 171.693 53.4199 202.129 63.8999 230.759C68.3232 242.847 77.9932 252.035 87.3465 260.925C89.8832 263.334 92.5065 265.831 94.9765 268.334C101.5 274.952 106.543 282.037 109.567 288.821C113.307 297.208 114.04 305.14 111.753 312.396C109.267 320.282 103.32 326.592 98.0732 332.162L67.0765 365.071C54.6632 378.25 43.4132 391.412 42.1365 407.515C40.5865 427.048 54.1965 444.228 69.1332 459.89C76.5565 467.672 83.4099 474.433 92.0799 478.358C104.393 483.931 118.46 482.85 132.063 481.806C133.44 481.699 134.813 481.595 136.18 481.495C142.043 481.075 147.43 480.861 152.477 480.861L152.483 480.874Z" fill="#1B397F"/>
<path d="M326.247 550.073C315.267 550.073 305.033 549.796 294.84 548.488C280.277 546.619 268.28 542.834 258.167 536.921C249.427 531.808 241.773 524.86 234.377 518.138C226.69 511.157 218.74 503.938 209.587 498.806C188.707 487.098 163.823 487.192 144.477 488.584C143.143 488.68 141.8 488.784 140.457 488.887C127.093 489.912 113.277 490.973 101.123 485.473C92.5632 481.599 85.8265 474.954 78.5332 467.305C63.8499 451.91 50.4699 435.007 52.0032 415.714C53.2665 399.809 64.3199 386.867 76.5199 373.915L106.82 341.747C111.91 336.344 117.68 330.217 120.077 322.621C125.487 305.458 112.2 288.591 103.8 280.064C101.393 277.621 98.8299 275.189 96.3532 272.832C87.1699 264.102 77.6699 255.078 73.3066 243.151C68.6965 230.556 69.4399 216.469 75.5799 200.087C80.9432 185.776 89.4199 172.02 97.6165 158.714C102.047 151.526 106.23 144.735 109.607 138.334C113.927 130.137 119.647 123.146 126.61 117.549C132.903 112.49 140.433 108.405 148.983 105.402C162.817 100.546 179.443 98.3032 201.317 98.3733C213.93 98.41 225.187 98.8238 235.247 103.543C244.743 108.001 252.277 116.088 258.927 123.223L313.557 181.852C321 189.838 329.433 198.892 340.083 203.718C349.35 207.919 360.533 209.167 374.267 207.532C381.403 206.684 388.64 205.166 395.637 203.701C409.707 200.751 424.253 197.7 438.6 199.98C448.653 201.578 458.533 205.703 468.8 212.598C478.827 219.329 487.713 227.729 494.337 234.294C505.017 244.883 514.93 256.633 515.127 270.803C515.257 280.108 511.047 289.042 506.977 297.682C501.83 308.608 496.967 318.927 500.287 329.773C502.547 337.155 508.343 342.885 513.457 347.938L559.043 393.001C566.847 400.713 574.88 409.11 580.787 418.237C587.543 428.68 590.543 438.551 589.96 448.416C588.883 466.581 575.43 483.354 549.973 498.268C540.06 504.075 529.317 509.341 517.907 508.577C506.903 507.836 496.94 501.556 487.3 495.478C475.297 487.913 463.96 480.764 451.02 483.714C443.7 485.383 437.587 490.266 433.077 494.334C426.97 499.844 421.273 506.154 415.767 512.258C404.51 524.733 392.87 537.631 377.257 544.112C363.55 549.802 347.91 549.923 334.113 550.029C331.447 550.049 328.83 550.066 326.253 550.066L326.247 550.073ZM160.37 487.446C166.77 487.446 172.607 487.793 178.163 488.493C190.397 490.035 200.757 493.259 209.837 498.352C219.043 503.514 227.013 510.753 234.723 517.755C242.103 524.456 249.733 531.387 258.427 536.473C281.423 549.926 310.63 549.699 334.1 549.519C347.85 549.412 363.437 549.292 377.05 543.642C392.553 537.204 404.153 524.349 415.373 511.918C420.89 505.804 426.593 499.483 432.72 493.953C437.273 489.845 443.457 484.909 450.893 483.214C464.04 480.217 475.467 487.419 487.563 495.045C497.147 501.085 507.057 507.332 517.927 508.063C529.19 508.824 539.853 503.591 549.697 497.824C574.997 483.004 588.363 466.371 589.427 448.389C590.697 426.941 574.213 408.746 558.663 393.375L513.077 348.311C507.92 343.215 502.077 337.435 499.777 329.926C496.397 318.887 501.3 308.481 506.493 297.461C510.54 288.875 514.723 279.998 514.593 270.813C514.4 256.83 504.56 245.176 493.957 234.664C478.89 219.73 460.52 203.988 438.503 200.49C424.253 198.228 409.75 201.268 395.73 204.205C388.723 205.673 381.473 207.192 374.313 208.046C360.483 209.691 349.213 208.43 339.857 204.188C329.113 199.316 320.64 190.225 313.163 182.202L258.533 123.573C251.917 116.471 244.417 108.425 235.013 104.01C225.05 99.3344 213.853 98.9239 201.303 98.8872C200.98 98.8872 200.653 98.8872 200.33 98.8872C167.817 98.8872 128.5 103.573 110.053 138.567C106.67 144.985 102.483 151.783 98.0465 158.981C81.8732 185.229 63.5399 214.981 73.7832 242.967C78.1065 254.781 87.5599 263.765 96.6999 272.452C99.1799 274.808 101.743 277.244 104.157 279.694C112.64 288.304 126.053 305.347 120.56 322.771C118.13 330.48 112.317 336.651 107.187 342.097L76.8865 374.265C64.7532 387.147 53.7565 400.012 52.5099 415.751C50.9965 434.84 64.2965 451.637 78.8999 466.941C86.1565 474.55 92.8532 481.158 101.33 484.993C113.363 490.439 127.113 489.384 140.41 488.363C141.757 488.26 143.097 488.156 144.433 488.06C150.163 487.649 155.433 487.442 160.363 487.442L160.37 487.446Z" fill="#1B397F"/>
<path d="M330.313 555.219C319.583 555.219 309.587 554.948 299.63 553.67C285.4 551.845 273.68 548.147 263.8 542.367C255.26 537.371 247.783 530.583 240.557 524.015C233.047 517.194 225.28 510.142 216.337 505.126C195.937 493.69 171.627 493.783 152.73 495.138C151.427 495.231 150.117 495.332 148.803 495.435C135.747 496.436 122.247 497.474 110.37 492.098C102.007 488.313 95.4233 481.819 88.2966 474.347C73.95 459.306 60.88 442.79 62.3733 423.937C63.6066 408.396 74.4066 395.751 86.33 383.096L115.933 351.669C120.907 346.389 126.543 340.405 128.883 332.987C134.17 316.224 121.19 299.744 112.983 291.418C110.63 289.031 108.13 286.652 105.71 284.353C96.7366 275.826 87.4566 267.006 83.19 255.352C78.6866 243.047 79.4133 229.281 85.41 213.275C90.65 199.296 98.93 185.853 106.94 172.854C111.267 165.83 115.357 159.195 118.653 152.941C122.873 144.932 128.463 138.1 135.267 132.634C141.417 127.691 148.77 123.7 157.127 120.766C170.64 116.024 186.887 113.848 208.257 113.902C220.58 113.935 231.58 114.342 241.407 118.954C250.683 123.309 258.047 131.209 264.543 138.18L317.917 195.458C325.187 203.26 333.427 212.104 343.83 216.82C352.883 220.924 363.807 222.143 377.223 220.547C384.197 219.716 391.267 218.235 398.103 216.803C411.85 213.923 426.063 210.943 440.08 213.169C449.903 214.731 459.557 218.762 469.587 225.497C479.383 232.074 488.067 240.281 494.537 246.695C504.973 257.04 514.657 268.524 514.85 282.37C514.977 291.464 510.863 300.191 506.887 308.631C501.857 319.304 497.107 329.386 500.35 339.978C502.56 347.19 508.22 352.787 513.213 357.723L557.75 401.748C565.373 409.283 573.223 417.486 578.993 426.404C585.597 436.606 588.527 446.25 587.957 455.892C586.907 473.643 573.76 490.032 548.887 504.602C539.2 510.276 528.703 515.425 517.557 514.674C506.807 513.95 497.07 507.813 487.653 501.876C475.927 494.484 464.853 487.502 452.213 490.382C445.063 492.011 439.09 496.783 434.687 500.755C428.72 506.138 423.157 512.305 417.773 518.269C406.777 530.456 395.403 543.058 380.15 549.392C366.757 554.952 351.477 555.069 337.997 555.175C335.39 555.195 332.833 555.209 330.317 555.209L330.313 555.219ZM168.253 494.02C174.507 494.02 180.21 494.36 185.64 495.044C197.593 496.55 207.717 499.7 216.587 504.676C225.58 509.718 233.37 516.793 240.9 523.632C248.11 530.179 255.563 536.951 264.057 541.916C286.523 555.059 315.06 554.838 337.987 554.661C351.42 554.558 366.647 554.441 379.943 548.918C395.09 542.631 406.423 530.072 417.38 517.925C422.77 511.951 428.343 505.774 434.33 500.374C438.78 496.359 444.82 491.537 452.09 489.882C464.94 486.952 476.103 493.99 487.92 501.442C497.283 507.342 506.963 513.446 517.583 514.16C528.59 514.905 539.003 509.792 548.617 504.159C573.33 489.678 586.39 473.432 587.43 455.865C588.67 434.914 572.567 417.136 557.377 402.122L512.84 358.096C507.8 353.117 502.09 347.47 499.843 340.132C496.54 329.346 501.333 319.177 506.407 308.411C510.36 300.024 514.447 291.351 514.32 282.377C514.13 268.718 504.52 257.331 494.16 247.065C479.44 232.475 461.497 217.097 439.987 213.683C426.063 211.47 411.9 214.44 398.2 217.314C391.353 218.749 384.273 220.234 377.277 221.065C363.763 222.673 352.75 221.438 343.61 217.294C333.113 212.535 324.833 203.651 317.53 195.812L264.157 138.534C257.693 131.596 250.367 123.737 241.18 119.425C231.447 114.856 220.507 114.456 208.247 114.422C176.29 114.329 137.3 118.657 119.103 153.185C115.8 159.455 111.707 166.096 107.373 173.128C91.5733 198.772 73.6633 227.836 83.6666 255.175C87.89 266.715 97.1233 275.492 106.057 283.979C108.48 286.282 110.983 288.661 113.343 291.054C121.633 299.467 134.737 316.12 129.37 333.147C126.993 340.679 121.313 346.71 116.303 352.029L86.7 383.456C74.8466 396.041 64.1033 408.609 62.8833 423.984C61.4033 442.633 74.4 459.039 88.6633 473.993C95.7533 481.425 102.297 487.883 110.577 491.63C122.333 496.95 135.767 495.919 148.757 494.921C150.07 494.821 151.383 494.721 152.687 494.627C158.287 494.224 163.433 494.023 168.25 494.023L168.253 494.02Z" fill="#1B397F"/>
<path d="M334.377 560.362C323.9 560.362 314.14 560.098 304.417 558.85C290.523 557.068 279.077 553.457 269.427 547.813C261.087 542.934 253.787 536.306 246.73 529.896C239.397 523.234 231.813 516.35 223.083 511.454C203.167 500.287 179.43 500.377 160.977 501.702C159.703 501.792 158.423 501.892 157.14 501.989C144.39 502.967 131.21 503.982 119.61 498.732C111.44 495.034 105.017 488.694 98.0533 481.398C84.0433 466.711 71.28 450.582 72.74 432.174C73.9433 416.996 84.4933 404.648 96.1333 392.29L125.04 361.604C129.897 356.448 135.4 350.607 137.683 343.362C142.843 326.996 130.17 310.911 122.157 302.778C119.86 300.448 117.417 298.125 115.053 295.88C106.29 287.553 97.23 278.94 93.0633 267.559C88.6666 255.542 89.3733 242.103 95.2333 226.468C100.35 212.815 108.437 199.689 116.257 186.998C120.483 180.14 124.473 173.662 127.693 167.555C145.59 133.595 183.85 129.343 215.193 129.43C227.227 129.463 237.967 129.857 247.567 134.362C256.627 138.614 263.817 146.33 270.16 153.138L322.277 209.067C329.377 216.686 337.423 225.32 347.58 229.925C356.42 233.933 367.083 235.125 380.183 233.566C386.993 232.755 393.893 231.31 400.57 229.908C413.993 227.095 427.873 224.185 441.56 226.358C462.707 229.715 480.31 244.793 494.737 259.096C504.927 269.198 514.383 280.411 514.573 293.934C514.697 302.814 510.68 311.338 506.797 319.581C501.887 330 497.25 339.845 500.417 350.187C502.573 357.229 508.1 362.692 512.977 367.511L556.463 410.498C563.907 417.857 571.573 425.866 577.207 434.576C583.653 444.542 586.517 453.959 585.96 463.374C584.933 480.707 572.097 496.713 547.807 510.943C538.97 516.119 529.437 520.848 519.343 520.848C518.633 520.848 517.927 520.825 517.21 520.778C506.71 520.071 497.203 514.077 488.007 508.28C476.56 501.065 465.747 494.247 453.407 497.06C446.427 498.652 440.593 503.308 436.297 507.185C430.47 512.442 425.037 518.462 419.783 524.286C409.043 536.186 397.94 548.494 383.043 554.678C369.963 560.108 355.043 560.221 341.88 560.325C339.333 560.345 336.837 560.358 334.377 560.358V560.362ZM176.137 500.594C182.243 500.594 187.813 500.928 193.113 501.595C204.787 503.067 214.67 506.144 223.333 511C232.117 515.926 239.72 522.831 247.077 529.512C254.117 535.906 261.393 542.517 269.687 547.366C291.623 560.198 319.487 559.984 341.873 559.808C354.99 559.707 369.857 559.591 382.84 554.201C397.627 548.06 408.693 535.799 419.393 523.942C424.657 518.108 430.1 512.078 435.943 506.805C440.29 502.884 446.187 498.175 453.287 496.556C465.833 493.696 476.737 500.568 488.28 507.843C497.42 513.606 506.873 519.563 517.243 520.261C527.983 520.985 538.157 515.996 547.543 510.496C571.673 496.359 584.423 480.494 585.44 463.344C586.65 442.886 570.93 425.532 556.097 410.872L512.61 367.884C507.69 363.019 502.113 357.509 499.92 350.34C496.693 339.805 501.373 329.876 506.327 319.361C510.187 311.171 514.177 302.704 514.053 293.944C513.867 280.608 504.483 269.492 494.37 259.467C480 245.22 462.477 230.205 441.477 226.871C427.887 224.712 414.053 227.612 400.677 230.416C393.99 231.817 387.077 233.266 380.247 234.08C367.05 235.648 356.297 234.444 347.37 230.399C337.12 225.75 329.033 217.077 321.903 209.421L269.787 153.492C263.477 146.72 256.323 139.041 247.353 134.833C237.85 130.374 227.17 129.981 215.2 129.947C184.017 129.857 145.93 134.082 128.16 167.795C124.933 173.919 120.937 180.403 116.707 187.268C101.277 212.308 83.79 240.684 93.56 267.376C97.6833 278.643 106.7 287.213 115.42 295.499C117.787 297.748 120.233 300.071 122.533 302.411C130.63 310.627 143.427 326.889 138.183 343.516C135.863 350.871 130.317 356.761 125.423 361.957L96.5166 392.644C84.9433 404.931 74.4533 417.203 73.2633 432.214C71.8199 450.422 84.5066 466.441 98.4333 481.041C105.357 488.296 111.743 494.604 119.827 498.262C131.303 503.454 144.42 502.45 157.103 501.475C158.387 501.375 159.667 501.278 160.94 501.188C166.407 500.795 171.433 500.598 176.14 500.598L176.137 500.594Z" fill="#1B397F"/>
<path d="M338.45 565.508C328.227 565.508 318.7 565.251 309.207 564.032C295.647 562.294 284.477 558.77 275.06 553.26C266.92 548.498 259.797 542.03 252.91 535.772C245.753 529.275 238.357 522.554 229.833 517.775C210.397 506.875 187.237 506.965 169.23 508.26C167.987 508.35 166.74 508.444 165.487 508.54C153.043 509.495 140.18 510.483 128.857 505.36C120.883 501.752 114.613 495.565 107.82 488.443C94.1466 474.11 81.69 458.368 83.1166 440.4C84.2933 425.586 94.5866 413.535 105.947 401.474L134.157 371.529C138.893 366.5 144.267 360.796 146.493 353.731C151.53 337.762 139.163 322.067 131.343 314.131C129.103 311.855 126.717 309.592 124.413 307.4C115.86 299.274 107.017 290.867 102.953 279.761C98.66 268.033 99.3533 254.915 105.07 239.657C110.063 226.334 117.953 213.526 125.587 201.138C129.71 194.447 133.607 188.122 136.747 182.162C154.213 149.02 191.557 144.861 222.14 144.955C233.883 144.988 244.367 145.372 253.733 149.771C262.577 153.922 269.593 161.451 275.783 168.095L326.643 222.677C333.57 230.112 341.423 238.535 351.333 243.031C359.96 246.942 370.367 248.103 383.147 246.581C389.79 245.79 396.527 244.379 403.04 243.014C416.14 240.267 429.683 237.431 443.043 239.55C463.68 242.827 480.86 257.541 494.943 271.501C504.89 281.362 514.12 292.305 514.303 305.504C514.423 314.171 510.503 322.491 506.713 330.534C501.923 340.702 497.397 350.304 500.487 360.396C502.59 367.264 507.983 372.597 512.743 377.299L555.183 419.252C562.447 426.434 569.927 434.249 575.427 442.749C581.72 452.474 584.513 461.668 583.97 470.856C582.967 487.776 570.44 503.394 546.733 517.284C538.107 522.337 528.803 526.952 518.953 526.952C518.26 526.952 517.57 526.929 516.873 526.882C506.627 526.191 497.347 520.341 488.373 514.684C477.203 507.643 466.65 500.991 454.613 503.735C447.803 505.287 442.113 509.832 437.917 513.616C432.233 518.746 426.93 524.623 421.803 530.303C411.323 541.916 400.487 553.927 385.947 559.964C373.183 565.264 358.623 565.377 345.777 565.474C343.293 565.494 340.857 565.508 338.46 565.508H338.45ZM184.023 507.169C189.983 507.169 195.417 507.492 200.59 508.147C211.98 509.582 221.63 512.585 230.083 517.327C238.657 522.133 246.077 528.874 253.253 535.392C260.123 541.629 267.227 548.08 275.317 552.816C296.723 565.337 323.913 565.127 345.757 564.957C358.557 564.857 373.063 564.747 385.733 559.484C400.163 553.493 410.96 541.526 421.403 529.956C426.54 524.262 431.85 518.379 437.557 513.229C441.8 509.401 447.557 504.806 454.483 503.227C466.73 500.434 477.373 507.142 488.637 514.244C497.557 519.867 506.78 525.681 516.897 526.361C527.38 527.069 537.303 522.2 546.463 516.833C570.01 503.041 582.453 487.559 583.443 470.826C584.627 450.866 569.283 433.929 554.81 419.622L512.37 377.669C507.567 372.924 502.123 367.541 499.983 360.546C496.833 350.264 501.403 340.572 506.237 330.31C510.003 322.317 513.897 314.058 513.777 305.508C513.597 292.496 504.44 281.649 494.57 271.868C480.547 257.965 463.447 243.314 442.957 240.06C429.693 237.955 416.197 240.785 403.14 243.521C396.617 244.889 389.867 246.304 383.2 247.095C370.32 248.627 359.827 247.452 351.113 243.501C341.107 238.966 333.22 230.499 326.257 223.027L275.397 168.446C269.24 161.838 262.26 154.346 253.507 150.238C244.233 145.886 233.81 145.506 222.13 145.472C191.693 145.379 154.533 149.507 137.197 182.402C134.047 188.379 130.147 194.707 126.02 201.408C110.963 225.84 93.9 253.533 103.433 279.58C107.457 290.573 116.257 298.936 124.763 307.023C127.073 309.215 129.46 311.485 131.707 313.767C139.607 321.787 152.097 337.659 146.98 353.888C144.717 361.066 139.303 366.817 134.527 371.886L106.317 401.831C95.0233 413.822 84.7866 425.796 83.6266 440.443C82.2166 458.208 94.6 473.839 108.19 488.086C114.947 495.168 121.18 501.319 129.067 504.889C140.267 509.959 153.067 508.974 165.443 508.023C166.697 507.926 167.943 507.83 169.187 507.743C174.523 507.359 179.427 507.165 184.02 507.165L184.023 507.169Z" fill="#1B397F"/>
<path d="M341.887 570.657C322.083 570.657 299.213 569.539 280.69 558.706C272.75 554.064 265.803 547.753 259.083 541.649C252.103 535.312 244.89 528.758 236.58 524.099C217.627 513.469 195.037 513.556 177.477 514.818C176.267 514.905 175.05 514.998 173.83 515.091C161.693 516.023 149.147 516.987 138.103 511.991C130.327 508.47 124.21 502.436 117.583 495.492C104.247 481.512 92.0967 466.157 93.4867 448.63C94.6334 434.179 104.673 422.425 115.753 410.662L143.267 381.457C147.887 376.551 153.123 370.991 155.297 364.1C160.207 348.528 148.147 333.224 140.523 325.484C138.337 323.265 136.013 321.056 133.763 318.92C125.423 310.994 116.797 302.794 112.83 291.962C103.447 266.328 120.16 239.206 134.903 215.278C138.927 208.75 142.723 202.586 145.787 196.773C162.823 164.444 199.25 160.386 229.077 160.48C240.53 160.513 250.757 160.887 259.893 165.175C268.52 169.223 275.363 176.569 281.4 183.046L331.003 236.279C337.76 243.528 345.417 251.747 355.08 256.129C363.49 259.944 373.637 261.075 386.103 259.593C392.583 258.822 399.153 257.444 405.503 256.113C418.28 253.436 431.49 250.663 444.52 252.735C464.65 255.932 481.403 270.283 495.14 283.899C504.84 293.517 513.843 304.189 514.023 317.064C514.14 325.518 510.317 333.631 506.62 341.48C501.947 351.395 497.533 360.759 500.547 370.601C502.597 377.299 507.857 382.498 512.497 387.084L553.887 427.999C568.083 442.032 583.13 458.652 581.963 478.331C580.987 494.834 568.767 510.069 545.643 523.615C537.23 528.544 528.157 533.046 518.547 533.046C517.873 533.046 517.197 533.023 516.517 532.979C506.52 532.305 497.47 526.602 488.717 521.082C477.823 514.214 467.533 507.729 455.793 510.403C449.153 511.918 443.603 516.346 439.513 520.037C433.97 525.04 428.8 530.77 423.797 536.31C413.573 547.636 403.003 559.354 388.823 565.241C376.373 570.41 362.173 570.52 349.643 570.617C347.123 570.637 344.523 570.657 341.877 570.657H341.887ZM191.907 513.74C197.72 513.74 203.02 514.057 208.067 514.691C219.177 516.093 228.587 519.019 236.833 523.645C245.193 528.334 252.433 534.908 259.433 541.266C266.133 547.349 273.06 553.64 280.953 558.259C301.827 570.47 328.343 570.267 349.65 570.1C362.133 570.003 376.28 569.893 388.637 564.763C402.71 558.92 413.24 547.249 423.423 535.966C428.433 530.416 433.613 524.676 439.177 519.653C443.313 515.919 448.93 511.437 455.69 509.899C467.637 507.172 478.017 513.716 489.003 520.645C497.703 526.128 506.697 531.798 516.563 532.462C526.787 533.149 536.463 528.404 545.393 523.168C568.357 509.715 580.49 494.621 581.457 478.301C582.61 458.838 567.647 442.322 553.533 428.369L512.143 387.454C507.46 382.825 502.15 377.576 500.06 370.751C496.987 360.719 501.443 351.265 506.16 341.256C509.833 333.464 513.63 325.404 513.513 317.071C513.337 304.383 504.407 293.807 494.783 284.266C481.107 270.706 464.433 256.42 444.447 253.246C431.513 251.19 418.347 253.95 405.617 256.62C399.253 257.955 392.673 259.333 386.17 260.107C373.607 261.602 363.37 260.454 354.87 256.603C345.11 252.178 337.417 243.922 330.627 236.636L281.023 183.404C275.017 176.959 268.21 169.654 259.677 165.646C250.637 161.401 240.47 161.03 229.08 160.997C199.393 160.904 163.16 164.932 146.25 197.013C143.18 202.84 139.377 209.014 135.35 215.548C120.667 239.376 104.027 266.385 113.32 291.781C117.243 302.501 125.823 310.657 134.123 318.543C136.377 320.682 138.703 322.895 140.897 325.121C148.603 332.943 160.787 348.425 155.797 364.257C153.587 371.262 148.307 376.868 143.65 381.814L116.137 411.019C105.123 422.712 95.1433 434.39 94.01 448.67C92.6367 465.994 104.71 481.238 117.963 495.131C124.55 502.036 130.63 508.036 138.32 511.517C149.243 516.46 161.723 515.502 173.793 514.574C175.013 514.481 176.233 514.387 177.443 514.3C182.647 513.927 187.43 513.74 191.91 513.74H191.907Z" fill="#1B397F"/>
<path d="M345.97 575.803C326.667 575.803 304.377 574.712 286.323 564.153C278.587 559.627 271.813 553.477 265.263 547.53C258.463 541.352 251.43 534.965 243.33 530.423C224.857 520.064 202.843 520.151 185.73 521.379C184.55 521.462 183.363 521.556 182.173 521.646C170.343 522.554 158.113 523.495 147.35 518.622C139.77 515.192 133.807 509.308 127.35 502.54C114.35 488.914 102.507 473.946 103.863 456.863C104.98 442.776 114.767 431.319 125.567 419.853L152.38 391.386C156.883 386.607 161.987 381.187 164.103 374.472C168.887 359.301 157.137 344.383 149.707 336.841C147.577 334.679 145.31 332.526 143.12 330.444C134.99 322.718 126.583 314.725 122.717 304.166C113.57 279.177 129.86 252.742 144.233 229.418C148.153 223.057 151.857 217.047 154.84 211.383C171.283 180.183 206.25 176.005 235.16 176.005C235.45 176.005 235.737 176.005 236.023 176.005C247.187 176.035 257.153 176.402 266.06 180.584C274.467 184.532 281.14 191.69 287.023 198.004L335.37 249.885C341.953 256.95 349.417 264.96 358.837 269.232C367.033 272.949 376.923 274.051 389.07 272.605C395.387 271.855 401.787 270.513 407.98 269.215C420.433 266.605 433.31 263.905 446.01 265.921C465.63 269.038 481.963 283.024 495.35 296.297C504.807 305.671 513.583 316.077 513.757 328.628C513.87 336.871 510.143 344.777 506.54 352.426C501.987 362.088 497.687 371.215 500.62 380.803C502.62 387.331 507.743 392.397 512.267 396.865L552.607 436.742C566.443 450.422 581.11 466.621 579.973 485.804C579.02 501.889 567.11 516.74 544.573 529.946C536.373 534.751 527.527 539.137 518.16 539.137C517.503 539.137 516.843 539.116 516.18 539.07C506.437 538.416 497.613 532.852 489.08 527.473C478.463 520.782 468.437 514.461 456.997 517.067C450.527 518.542 445.12 522.861 441.133 526.458C435.73 531.334 430.69 536.917 425.817 542.32C415.853 553.363 405.55 564.78 391.73 570.517C379.597 575.556 365.753 575.663 353.54 575.756C351.083 575.776 348.55 575.796 345.97 575.796V575.803ZM199.793 520.314C205.46 520.314 210.627 520.621 215.543 521.242C226.373 522.607 235.547 525.46 243.583 529.969C251.733 534.538 258.787 540.945 265.61 547.143C272.14 553.073 278.89 559.204 286.583 563.702C306.927 575.603 332.77 575.403 353.537 575.242C365.703 575.149 379.49 575.042 391.533 570.043C405.247 564.35 415.51 552.976 425.437 541.977C430.32 536.567 435.367 530.97 440.79 526.078C444.823 522.44 450.297 518.068 456.887 516.567C468.537 513.91 478.65 520.288 489.36 527.039C497.837 532.382 506.603 537.908 516.217 538.556C526.18 539.227 535.607 534.601 544.313 529.498C566.693 516.386 578.517 501.676 579.46 485.774C580.583 466.805 566 450.709 552.247 437.113L511.907 397.236C507.34 392.724 502.167 387.608 500.13 380.953C497.137 371.175 501.477 361.958 506.077 352.203C509.657 344.607 513.357 336.754 513.243 328.635C513.07 316.27 504.37 305.965 494.99 296.667C481.66 283.455 465.41 269.529 445.933 266.435C433.327 264.433 420.5 267.122 408.09 269.722C401.887 271.024 395.473 272.365 389.137 273.119C376.893 274.578 366.913 273.46 358.627 269.702C349.113 265.39 341.613 257.341 334.997 250.239L286.65 198.358C280.797 192.077 274.163 184.959 265.847 181.054C257.037 176.919 247.13 176.556 236.027 176.526C207.103 176.449 171.78 180.36 155.303 211.624C152.31 217.304 148.603 223.321 144.677 229.688C130.367 252.912 114.147 279.233 123.207 303.983C127.03 314.428 135.393 322.378 143.48 330.063C145.673 332.149 147.943 334.305 150.08 336.474C157.593 344.096 169.47 359.191 164.603 374.626C162.45 381.454 157.303 386.917 152.763 391.739L125.95 420.206C115.217 431.603 105.49 442.983 104.383 456.899C103.043 473.783 114.813 488.637 127.727 502.18C134.147 508.911 140.07 514.758 147.567 518.148C158.21 522.964 170.373 522.03 182.137 521.129C183.327 521.038 184.513 520.945 185.697 520.862C190.77 520.498 195.427 520.314 199.793 520.314Z" fill="#1B397F"/>
<path d="M350.05 580.946C331.25 580.946 309.537 579.884 291.953 569.599C284.417 565.19 277.82 559.2 271.44 553.407C264.817 547.389 257.967 541.169 250.08 536.747C232.09 526.662 210.65 526.742 193.98 527.94C192.83 528.023 191.673 528.11 190.513 528.2C178.99 529.085 167.077 529.999 156.593 525.253C149.21 521.913 143.4 516.179 137.11 509.585C124.447 496.309 112.913 481.732 114.233 465.089C115.323 451.366 124.857 440.206 135.377 429.037L161.493 401.311C165.88 396.655 170.85 391.379 172.91 384.841C177.57 370.067 166.127 355.54 158.89 348.198C156.817 346.092 154.607 343.993 152.473 341.967C144.553 334.442 136.363 326.659 132.6 316.37C123.69 292.028 139.557 266.278 153.557 243.561C157.373 237.364 160.98 231.514 163.89 225.994C180.067 195.301 214.647 191.46 242.97 191.533C253.847 191.563 263.553 191.92 272.23 195.992C280.42 199.836 286.917 206.808 292.65 212.962L339.74 263.495C346.153 270.376 353.42 278.175 362.593 282.334C370.577 285.951 380.207 287.026 392.037 285.621C398.187 284.89 404.423 283.582 410.453 282.317C422.583 279.774 435.123 277.144 447.497 279.11C466.61 282.147 482.517 295.769 495.557 308.698C504.77 317.829 513.317 327.967 513.487 340.192C513.6 348.221 509.967 355.924 506.457 363.372C502.023 372.784 497.833 381.671 500.693 391.008C502.64 397.363 507.63 402.298 512.037 406.65L551.33 445.489C564.807 458.812 579.093 474.59 577.987 493.282C577.06 508.954 565.457 523.421 543.503 536.283C534.953 541.292 525.687 545.831 515.843 545.174C506.35 544.536 497.757 539.116 489.447 533.877C479.107 527.359 469.34 521.205 458.203 523.742C451.9 525.177 446.637 529.382 442.753 532.886C437.49 537.635 432.583 543.074 427.837 548.334C418.13 559.09 408.097 570.21 394.633 575.8C382.813 580.709 369.33 580.812 357.433 580.902C355.04 580.922 352.573 580.939 350.057 580.939L350.05 580.946ZM207.677 526.885C213.197 526.885 218.227 527.186 223.02 527.79C233.57 529.118 242.503 531.901 250.333 536.29C258.273 540.742 265.143 546.982 271.79 553.016C278.15 558.793 284.723 564.763 292.217 569.145C312.03 580.735 337.2 580.539 357.423 580.385C369.273 580.295 382.703 580.188 394.43 575.322C407.787 569.776 417.78 558.7 427.447 547.987C432.203 542.717 437.12 537.268 442.403 532.502C446.333 528.958 451.667 524.699 458.083 523.238C469.43 520.651 479.287 526.862 489.72 533.44C497.977 538.646 506.513 544.026 515.877 544.656C525.58 545.31 534.76 540.802 543.24 535.836C565.033 523.067 576.55 508.741 577.47 493.252C578.563 474.781 564.363 459.105 550.967 445.863L511.673 407.024C507.227 402.629 502.183 397.643 500.2 391.162C497.283 381.634 501.513 372.657 505.99 363.156C509.477 355.76 513.08 348.111 512.97 340.202C512.803 328.161 504.327 318.122 495.193 309.068C482.21 296.2 466.383 282.637 447.417 279.624C435.14 277.675 422.643 280.294 410.56 282.827C404.52 284.092 398.27 285.404 392.097 286.138C380.17 287.556 370.447 286.468 362.377 282.811C353.11 278.609 345.803 270.77 339.357 263.852L292.267 213.319C286.567 207.202 280.107 200.267 272.007 196.466C263.427 192.438 253.777 192.084 242.967 192.054C214.803 191.974 180.397 195.788 164.347 226.237C161.43 231.771 157.82 237.631 153.997 243.835C140.06 266.451 124.263 292.088 133.087 316.193C136.81 326.369 144.953 334.108 152.83 341.593C154.967 343.626 157.177 345.725 159.26 347.837C166.577 355.263 178.147 369.967 173.407 385.001C171.31 391.653 166.297 396.975 161.873 401.671L135.757 429.397C125.303 440.497 115.83 451.58 114.753 465.132C113.45 481.572 124.91 496.042 137.49 509.228C143.743 515.782 149.513 521.476 156.813 524.78C167.18 529.468 179.023 528.561 190.48 527.68C191.64 527.589 192.797 527.503 193.947 527.419C198.887 527.066 203.427 526.885 207.677 526.885Z" fill="#1B397F"/>
</g>
<defs>
<radialGradient id="paint0_radial_589_181" cx="0" cy="0" r="1" gradientUnits="userSpaceOnUse" gradientTransform="translate(300 300.742) rotate(90) scale(300)">
<stop stop-color="#1B397F"/>
<stop offset="1" stop-color="#1B1C2C" stop-opacity="0"/>
</radialGradient>
<clipPath id="clip0_589_181">
<rect width="600" height="560.204" fill="white" transform="translate(0 20.7417)"/>
</clipPath>
</defs>
</svg>
